<?xml version="1.0" encoding="utf-8" standalone="no"?>
<!DOCTYPE svg PUBLIC "-//W3C//DTD SVG 1.1//EN"
  "http://www.w3.org/Graphics/SVG/1.1/DTD/svg11.dtd">
<!-- Created with matplotlib (https://matplotlib.org/) -->
<svg height="345.6pt" version="1.1" viewBox="0 0 460.8 345.6" width="460.8pt" xmlns="http://www.w3.org/2000/svg" xmlns:xlink="http://www.w3.org/1999/xlink">
 <defs>
  <style type="text/css">
*{stroke-linecap:butt;stroke-linejoin:round;}
  </style>
 </defs>
 <g id="figure_1">
  <g id="patch_1">
   <path d="M 0 345.6 
L 460.8 345.6 
L 460.8 0 
L 0 0 
z
" style="fill:#ffffff;"/>
  </g>
  <g id="axes_1">
   <g id="patch_2">
    <path d="M 57.6 307.584 
L 414.72 307.584 
L 414.72 41.472 
L 57.6 41.472 
z
" style="fill:#ffffff;"/>
   </g>
   <g id="matplotlib.axis_1">
    <g id="xtick_1">
     <g id="line2d_1">
      <defs>
       <path d="M 0 0 
L 0 3.5 
" id="mc634772071" style="stroke:#000000;stroke-width:0.8;"/>
      </defs>
      <g>
       <use style="stroke:#000000;stroke-width:0.8;" x="73.832727" xlink:href="#mc634772071" y="307.584"/>
      </g>
     </g>
     <g id="text_1">
      <!-- 0 -->
      <defs>
       <path d="M 31.78125 66.40625 
Q 24.171875 66.40625 20.328125 58.90625 
Q 16.5 51.421875 16.5 36.375 
Q 16.5 21.390625 20.328125 13.890625 
Q 24.171875 6.390625 31.78125 6.390625 
Q 39.453125 6.390625 43.28125 13.890625 
Q 47.125 21.390625 47.125 36.375 
Q 47.125 51.421875 43.28125 58.90625 
Q 39.453125 66.40625 31.78125 66.40625 
z
M 31.78125 74.21875 
Q 44.046875 74.21875 50.515625 64.515625 
Q 56.984375 54.828125 56.984375 36.375 
Q 56.984375 17.96875 50.515625 8.265625 
Q 44.046875 -1.421875 31.78125 -1.421875 
Q 19.53125 -1.421875 13.0625 8.265625 
Q 6.59375 17.96875 6.59375 36.375 
Q 6.59375 54.828125 13.0625 64.515625 
Q 19.53125 74.21875 31.78125 74.21875 
z
" id="DejaVuSans-48"/>
      </defs>
      <g transform="translate(70.651477 322.182437)scale(0.1 -0.1)">
       <use xlink:href="#DejaVuSans-48"/>
      </g>
     </g>
    </g>
    <g id="xtick_2">
     <g id="line2d_2">
      <g>
       <use style="stroke:#000000;stroke-width:0.8;" x="115.919135" xlink:href="#mc634772071" y="307.584"/>
      </g>
     </g>
     <g id="text_2">
      <!-- 50000 -->
      <defs>
       <path d="M 10.796875 72.90625 
L 49.515625 72.90625 
L 49.515625 64.59375 
L 19.828125 64.59375 
L 19.828125 46.734375 
Q 21.96875 47.46875 24.109375 47.828125 
Q 26.265625 48.1875 28.421875 48.1875 
Q 40.625 48.1875 47.75 41.5 
Q 54.890625 34.8125 54.890625 23.390625 
Q 54.890625 11.625 47.5625 5.09375 
Q 40.234375 -1.421875 26.90625 -1.421875 
Q 22.3125 -1.421875 17.546875 -0.640625 
Q 12.796875 0.140625 7.71875 1.703125 
L 7.71875 11.625 
Q 12.109375 9.234375 16.796875 8.0625 
Q 21.484375 6.890625 26.703125 6.890625 
Q 35.15625 6.890625 40.078125 11.328125 
Q 45.015625 15.765625 45.015625 23.390625 
Q 45.015625 31 40.078125 35.4375 
Q 35.15625 39.890625 26.703125 39.890625 
Q 22.75 39.890625 18.8125 39.015625 
Q 14.890625 38.140625 10.796875 36.28125 
z
" id="DejaVuSans-53"/>
      </defs>
      <g transform="translate(100.012885 322.182437)scale(0.1 -0.1)">
       <use xlink:href="#DejaVuSans-53"/>
       <use x="63.623047" xlink:href="#DejaVuSans-48"/>
       <use x="127.246094" xlink:href="#DejaVuSans-48"/>
       <use x="190.869141" xlink:href="#DejaVuSans-48"/>
       <use x="254.492188" xlink:href="#DejaVuSans-48"/>
      </g>
     </g>
    </g>
    <g id="xtick_3">
     <g id="line2d_3">
      <g>
       <use style="stroke:#000000;stroke-width:0.8;" x="158.005542" xlink:href="#mc634772071" y="307.584"/>
      </g>
     </g>
     <g id="text_3">
      <!-- 100000 -->
      <defs>
       <path d="M 12.40625 8.296875 
L 28.515625 8.296875 
L 28.515625 63.921875 
L 10.984375 60.40625 
L 10.984375 69.390625 
L 28.421875 72.90625 
L 38.28125 72.90625 
L 38.28125 8.296875 
L 54.390625 8.296875 
L 54.390625 0 
L 12.40625 0 
z
" id="DejaVuSans-49"/>
      </defs>
      <g transform="translate(138.918042 322.182437)scale(0.1 -0.1)">
       <use xlink:href="#DejaVuSans-49"/>
       <use x="63.623047" xlink:href="#DejaVuSans-48"/>
       <use x="127.246094" xlink:href="#DejaVuSans-48"/>
       <use x="190.869141" xlink:href="#DejaVuSans-48"/>
       <use x="254.492188" xlink:href="#DejaVuSans-48"/>
       <use x="318.115234" xlink:href="#DejaVuSans-48"/>
      </g>
     </g>
    </g>
    <g id="xtick_4">
     <g id="line2d_4">
      <g>
       <use style="stroke:#000000;stroke-width:0.8;" x="200.091949" xlink:href="#mc634772071" y="307.584"/>
      </g>
     </g>
     <g id="text_4">
      <!-- 150000 -->
      <g transform="translate(181.004449 322.182437)scale(0.1 -0.1)">
       <use xlink:href="#DejaVuSans-49"/>
       <use x="63.623047" xlink:href="#DejaVuSans-53"/>
       <use x="127.246094" xlink:href="#DejaVuSans-48"/>
       <use x="190.869141" xlink:href="#DejaVuSans-48"/>
       <use x="254.492188" xlink:href="#DejaVuSans-48"/>
       <use x="318.115234" xlink:href="#DejaVuSans-48"/>
      </g>
     </g>
    </g>
    <g id="xtick_5">
     <g id="line2d_5">
      <g>
       <use style="stroke:#000000;stroke-width:0.8;" x="242.178356" xlink:href="#mc634772071" y="307.584"/>
      </g>
     </g>
     <g id="text_5">
      <!-- 200000 -->
      <defs>
       <path d="M 19.1875 8.296875 
L 53.609375 8.296875 
L 53.609375 0 
L 7.328125 0 
L 7.328125 8.296875 
Q 12.9375 14.109375 22.625 23.890625 
Q 32.328125 33.6875 34.8125 36.53125 
Q 39.546875 41.84375 41.421875 45.53125 
Q 43.3125 49.21875 43.3125 52.78125 
Q 43.3125 58.59375 39.234375 62.25 
Q 35.15625 65.921875 28.609375 65.921875 
Q 23.96875 65.921875 18.8125 64.3125 
Q 13.671875 62.703125 7.8125 59.421875 
L 7.8125 69.390625 
Q 13.765625 71.78125 18.9375 73 
Q 24.125 74.21875 28.421875 74.21875 
Q 39.75 74.21875 46.484375 68.546875 
Q 53.21875 62.890625 53.21875 53.421875 
Q 53.21875 48.921875 51.53125 44.890625 
Q 49.859375 40.875 45.40625 35.40625 
Q 44.1875 33.984375 37.640625 27.21875 
Q 31.109375 20.453125 19.1875 8.296875 
z
" id="DejaVuSans-50"/>
      </defs>
      <g transform="translate(223.090856 322.182437)scale(0.1 -0.1)">
       <use xlink:href="#DejaVuSans-50"/>
       <use x="63.623047" xlink:href="#DejaVuSans-48"/>
       <use x="127.246094" xlink:href="#DejaVuSans-48"/>
       <use x="190.869141" xlink:href="#DejaVuSans-48"/>
       <use x="254.492188" xlink:href="#DejaVuSans-48"/>
       <use x="318.115234" xlink:href="#DejaVuSans-48"/>
      </g>
     </g>
    </g>
    <g id="xtick_6">
     <g id="line2d_6">
      <g>
       <use style="stroke:#000000;stroke-width:0.8;" x="284.264763" xlink:href="#mc634772071" y="307.584"/>
      </g>
     </g>
     <g id="text_6">
      <!-- 250000 -->
      <g transform="translate(265.177263 322.182437)scale(0.1 -0.1)">
       <use xlink:href="#DejaVuSans-50"/>
       <use x="63.623047" xlink:href="#DejaVuSans-53"/>
       <use x="127.246094" xlink:href="#DejaVuSans-48"/>
       <use x="190.869141" xlink:href="#DejaVuSans-48"/>
       <use x="254.492188" xlink:href="#DejaVuSans-48"/>
       <use x="318.115234" xlink:href="#DejaVuSans-48"/>
      </g>
     </g>
    </g>
    <g id="xtick_7">
     <g id="line2d_7">
      <g>
       <use style="stroke:#000000;stroke-width:0.8;" x="326.351171" xlink:href="#mc634772071" y="307.584"/>
      </g>
     </g>
     <g id="text_7">
      <!-- 300000 -->
      <defs>
       <path d="M 40.578125 39.3125 
Q 47.65625 37.796875 51.625 33 
Q 55.609375 28.21875 55.609375 21.1875 
Q 55.609375 10.40625 48.1875 4.484375 
Q 40.765625 -1.421875 27.09375 -1.421875 
Q 22.515625 -1.421875 17.65625 -0.515625 
Q 12.796875 0.390625 7.625 2.203125 
L 7.625 11.71875 
Q 11.71875 9.328125 16.59375 8.109375 
Q 21.484375 6.890625 26.8125 6.890625 
Q 36.078125 6.890625 40.9375 10.546875 
Q 45.796875 14.203125 45.796875 21.1875 
Q 45.796875 27.640625 41.28125 31.265625 
Q 36.765625 34.90625 28.71875 34.90625 
L 20.21875 34.90625 
L 20.21875 43.015625 
L 29.109375 43.015625 
Q 36.375 43.015625 40.234375 45.921875 
Q 44.09375 48.828125 44.09375 54.296875 
Q 44.09375 59.90625 40.109375 62.90625 
Q 36.140625 65.921875 28.71875 65.921875 
Q 24.65625 65.921875 20.015625 65.03125 
Q 15.375 64.15625 9.8125 62.3125 
L 9.8125 71.09375 
Q 15.4375 72.65625 20.34375 73.4375 
Q 25.25 74.21875 29.59375 74.21875 
Q 40.828125 74.21875 47.359375 69.109375 
Q 53.90625 64.015625 53.90625 55.328125 
Q 53.90625 49.265625 50.4375 45.09375 
Q 46.96875 40.921875 40.578125 39.3125 
z
" id="DejaVuSans-51"/>
      </defs>
      <g transform="translate(307.263671 322.182437)scale(0.1 -0.1)">
       <use xlink:href="#DejaVuSans-51"/>
       <use x="63.623047" xlink:href="#DejaVuSans-48"/>
       <use x="127.246094" xlink:href="#DejaVuSans-48"/>
       <use x="190.869141" xlink:href="#DejaVuSans-48"/>
       <use x="254.492188" xlink:href="#DejaVuSans-48"/>
       <use x="318.115234" xlink:href="#DejaVuSans-48"/>
      </g>
     </g>
    </g>
    <g id="xtick_8">
     <g id="line2d_8">
      <g>
       <use style="stroke:#000000;stroke-width:0.8;" x="368.437578" xlink:href="#mc634772071" y="307.584"/>
      </g>
     </g>
     <g id="text_8">
      <!-- 350000 -->
      <g transform="translate(349.350078 322.182437)scale(0.1 -0.1)">
       <use xlink:href="#DejaVuSans-51"/>
       <use x="63.623047" xlink:href="#DejaVuSans-53"/>
       <use x="127.246094" xlink:href="#DejaVuSans-48"/>
       <use x="190.869141" xlink:href="#DejaVuSans-48"/>
       <use x="254.492188" xlink:href="#DejaVuSans-48"/>
       <use x="318.115234" xlink:href="#DejaVuSans-48"/>
      </g>
     </g>
    </g>
    <g id="xtick_9">
     <g id="line2d_9">
      <g>
       <use style="stroke:#000000;stroke-width:0.8;" x="410.523985" xlink:href="#mc634772071" y="307.584"/>
      </g>
     </g>
     <g id="text_9">
      <!-- 400000 -->
      <defs>
       <path d="M 37.796875 64.3125 
L 12.890625 25.390625 
L 37.796875 25.390625 
z
M 35.203125 72.90625 
L 47.609375 72.90625 
L 47.609375 25.390625 
L 58.015625 25.390625 
L 58.015625 17.1875 
L 47.609375 17.1875 
L 47.609375 0 
L 37.796875 0 
L 37.796875 17.1875 
L 4.890625 17.1875 
L 4.890625 26.703125 
z
" id="DejaVuSans-52"/>
      </defs>
      <g transform="translate(391.436485 322.182437)scale(0.1 -0.1)">
       <use xlink:href="#DejaVuSans-52"/>
       <use x="63.623047" xlink:href="#DejaVuSans-48"/>
       <use x="127.246094" xlink:href="#DejaVuSans-48"/>
       <use x="190.869141" xlink:href="#DejaVuSans-48"/>
       <use x="254.492188" xlink:href="#DejaVuSans-48"/>
       <use x="318.115234" xlink:href="#DejaVuSans-48"/>
      </g>
     </g>
    </g>
    <g id="text_10">
     <!-- Time in ms -->
     <defs>
      <path d="M -0.296875 72.90625 
L 61.375 72.90625 
L 61.375 64.59375 
L 35.5 64.59375 
L 35.5 0 
L 25.59375 0 
L 25.59375 64.59375 
L -0.296875 64.59375 
z
" id="DejaVuSans-84"/>
      <path d="M 9.421875 54.6875 
L 18.40625 54.6875 
L 18.40625 0 
L 9.421875 0 
z
M 9.421875 75.984375 
L 18.40625 75.984375 
L 18.40625 64.59375 
L 9.421875 64.59375 
z
" id="DejaVuSans-105"/>
      <path d="M 52 44.1875 
Q 55.375 50.25 60.0625 53.125 
Q 64.75 56 71.09375 56 
Q 79.640625 56 84.28125 50.015625 
Q 88.921875 44.046875 88.921875 33.015625 
L 88.921875 0 
L 79.890625 0 
L 79.890625 32.71875 
Q 79.890625 40.578125 77.09375 44.375 
Q 74.3125 48.1875 68.609375 48.1875 
Q 61.625 48.1875 57.5625 43.546875 
Q 53.515625 38.921875 53.515625 30.90625 
L 53.515625 0 
L 44.484375 0 
L 44.484375 32.71875 
Q 44.484375 40.625 41.703125 44.40625 
Q 38.921875 48.1875 33.109375 48.1875 
Q 26.21875 48.1875 22.15625 43.53125 
Q 18.109375 38.875 18.109375 30.90625 
L 18.109375 0 
L 9.078125 0 
L 9.078125 54.6875 
L 18.109375 54.6875 
L 18.109375 46.1875 
Q 21.1875 51.21875 25.484375 53.609375 
Q 29.78125 56 35.6875 56 
Q 41.65625 56 45.828125 52.96875 
Q 50 49.953125 52 44.1875 
z
" id="DejaVuSans-109"/>
      <path d="M 56.203125 29.59375 
L 56.203125 25.203125 
L 14.890625 25.203125 
Q 15.484375 15.921875 20.484375 11.0625 
Q 25.484375 6.203125 34.421875 6.203125 
Q 39.59375 6.203125 44.453125 7.46875 
Q 49.3125 8.734375 54.109375 11.28125 
L 54.109375 2.78125 
Q 49.265625 0.734375 44.1875 -0.34375 
Q 39.109375 -1.421875 33.890625 -1.421875 
Q 20.796875 -1.421875 13.15625 6.1875 
Q 5.515625 13.8125 5.515625 26.8125 
Q 5.515625 40.234375 12.765625 48.109375 
Q 20.015625 56 32.328125 56 
Q 43.359375 56 49.78125 48.890625 
Q 56.203125 41.796875 56.203125 29.59375 
z
M 47.21875 32.234375 
Q 47.125 39.59375 43.09375 43.984375 
Q 39.0625 48.390625 32.421875 48.390625 
Q 24.90625 48.390625 20.390625 44.140625 
Q 15.875 39.890625 15.1875 32.171875 
z
" id="DejaVuSans-101"/>
      <path id="DejaVuSans-32"/>
      <path d="M 54.890625 33.015625 
L 54.890625 0 
L 45.90625 0 
L 45.90625 32.71875 
Q 45.90625 40.484375 42.875 44.328125 
Q 39.84375 48.1875 33.796875 48.1875 
Q 26.515625 48.1875 22.3125 43.546875 
Q 18.109375 38.921875 18.109375 30.90625 
L 18.109375 0 
L 9.078125 0 
L 9.078125 54.6875 
L 18.109375 54.6875 
L 18.109375 46.1875 
Q 21.34375 51.125 25.703125 53.5625 
Q 30.078125 56 35.796875 56 
Q 45.21875 56 50.046875 50.171875 
Q 54.890625 44.34375 54.890625 33.015625 
z
" id="DejaVuSans-110"/>
      <path d="M 44.28125 53.078125 
L 44.28125 44.578125 
Q 40.484375 46.53125 36.375 47.5 
Q 32.28125 48.484375 27.875 48.484375 
Q 21.1875 48.484375 17.84375 46.4375 
Q 14.5 44.390625 14.5 40.28125 
Q 14.5 37.15625 16.890625 35.375 
Q 19.28125 33.59375 26.515625 31.984375 
L 29.59375 31.296875 
Q 39.15625 29.25 43.1875 25.515625 
Q 47.21875 21.78125 47.21875 15.09375 
Q 47.21875 7.46875 41.1875 3.015625 
Q 35.15625 -1.421875 24.609375 -1.421875 
Q 20.21875 -1.421875 15.453125 -0.5625 
Q 10.6875 0.296875 5.421875 2 
L 5.421875 11.28125 
Q 10.40625 8.6875 15.234375 7.390625 
Q 20.0625 6.109375 24.8125 6.109375 
Q 31.15625 6.109375 34.5625 8.28125 
Q 37.984375 10.453125 37.984375 14.40625 
Q 37.984375 18.0625 35.515625 20.015625 
Q 33.0625 21.96875 24.703125 23.78125 
L 21.578125 24.515625 
Q 13.234375 26.265625 9.515625 29.90625 
Q 5.8125 33.546875 5.8125 39.890625 
Q 5.8125 47.609375 11.28125 51.796875 
Q 16.75 56 26.8125 56 
Q 31.78125 56 36.171875 55.265625 
Q 40.578125 54.546875 44.28125 53.078125 
z
" id="DejaVuSans-115"/>
     </defs>
     <g transform="translate(208.715469 335.860562)scale(0.1 -0.1)">
      <use xlink:href="#DejaVuSans-84"/>
      <use x="57.958984" xlink:href="#DejaVuSans-105"/>
      <use x="85.742188" xlink:href="#DejaVuSans-109"/>
      <use x="183.154297" xlink:href="#DejaVuSans-101"/>
      <use x="244.677734" xlink:href="#DejaVuSans-32"/>
      <use x="276.464844" xlink:href="#DejaVuSans-105"/>
      <use x="304.248047" xlink:href="#DejaVuSans-110"/>
      <use x="367.626953" xlink:href="#DejaVuSans-32"/>
      <use x="399.414062" xlink:href="#DejaVuSans-109"/>
      <use x="496.826172" xlink:href="#DejaVuSans-115"/>
     </g>
    </g>
   </g>
   <g id="matplotlib.axis_2">
    <g id="ytick_1">
     <g id="line2d_10">
      <defs>
       <path d="M 0 0 
L -3.5 0 
" id="mea2872aa6d" style="stroke:#000000;stroke-width:0.8;"/>
      </defs>
      <g>
       <use style="stroke:#000000;stroke-width:0.8;" x="57.6" xlink:href="#mea2872aa6d" y="295.488"/>
      </g>
     </g>
     <g id="text_11">
      <!-- 0 -->
      <g transform="translate(44.2375 299.287219)scale(0.1 -0.1)">
       <use xlink:href="#DejaVuSans-48"/>
      </g>
     </g>
    </g>
    <g id="ytick_2">
     <g id="line2d_11">
      <g>
       <use style="stroke:#000000;stroke-width:0.8;" x="57.6" xlink:href="#mea2872aa6d" y="264.7568"/>
      </g>
     </g>
     <g id="text_12">
      <!-- 100000 -->
      <g transform="translate(12.425 268.556019)scale(0.1 -0.1)">
       <use xlink:href="#DejaVuSans-49"/>
       <use x="63.623047" xlink:href="#DejaVuSans-48"/>
       <use x="127.246094" xlink:href="#DejaVuSans-48"/>
       <use x="190.869141" xlink:href="#DejaVuSans-48"/>
       <use x="254.492188" xlink:href="#DejaVuSans-48"/>
       <use x="318.115234" xlink:href="#DejaVuSans-48"/>
      </g>
     </g>
    </g>
    <g id="ytick_3">
     <g id="line2d_12">
      <g>
       <use style="stroke:#000000;stroke-width:0.8;" x="57.6" xlink:href="#mea2872aa6d" y="234.0256"/>
      </g>
     </g>
     <g id="text_13">
      <!-- 200000 -->
      <g transform="translate(12.425 237.824819)scale(0.1 -0.1)">
       <use xlink:href="#DejaVuSans-50"/>
       <use x="63.623047" xlink:href="#DejaVuSans-48"/>
       <use x="127.246094" xlink:href="#DejaVuSans-48"/>
       <use x="190.869141" xlink:href="#DejaVuSans-48"/>
       <use x="254.492188" xlink:href="#DejaVuSans-48"/>
       <use x="318.115234" xlink:href="#DejaVuSans-48"/>
      </g>
     </g>
    </g>
    <g id="ytick_4">
     <g id="line2d_13">
      <g>
       <use style="stroke:#000000;stroke-width:0.8;" x="57.6" xlink:href="#mea2872aa6d" y="203.294401"/>
      </g>
     </g>
     <g id="text_14">
      <!-- 300000 -->
      <g transform="translate(12.425 207.093619)scale(0.1 -0.1)">
       <use xlink:href="#DejaVuSans-51"/>
       <use x="63.623047" xlink:href="#DejaVuSans-48"/>
       <use x="127.246094" xlink:href="#DejaVuSans-48"/>
       <use x="190.869141" xlink:href="#DejaVuSans-48"/>
       <use x="254.492188" xlink:href="#DejaVuSans-48"/>
       <use x="318.115234" xlink:href="#DejaVuSans-48"/>
      </g>
     </g>
    </g>
    <g id="ytick_5">
     <g id="line2d_14">
      <g>
       <use style="stroke:#000000;stroke-width:0.8;" x="57.6" xlink:href="#mea2872aa6d" y="172.563201"/>
      </g>
     </g>
     <g id="text_15">
      <!-- 400000 -->
      <g transform="translate(12.425 176.362419)scale(0.1 -0.1)">
       <use xlink:href="#DejaVuSans-52"/>
       <use x="63.623047" xlink:href="#DejaVuSans-48"/>
       <use x="127.246094" xlink:href="#DejaVuSans-48"/>
       <use x="190.869141" xlink:href="#DejaVuSans-48"/>
       <use x="254.492188" xlink:href="#DejaVuSans-48"/>
       <use x="318.115234" xlink:href="#DejaVuSans-48"/>
      </g>
     </g>
    </g>
    <g id="ytick_6">
     <g id="line2d_15">
      <g>
       <use style="stroke:#000000;stroke-width:0.8;" x="57.6" xlink:href="#mea2872aa6d" y="141.832001"/>
      </g>
     </g>
     <g id="text_16">
      <!-- 500000 -->
      <g transform="translate(12.425 145.63122)scale(0.1 -0.1)">
       <use xlink:href="#DejaVuSans-53"/>
       <use x="63.623047" xlink:href="#DejaVuSans-48"/>
       <use x="127.246094" xlink:href="#DejaVuSans-48"/>
       <use x="190.869141" xlink:href="#DejaVuSans-48"/>
       <use x="254.492188" xlink:href="#DejaVuSans-48"/>
       <use x="318.115234" xlink:href="#DejaVuSans-48"/>
      </g>
     </g>
    </g>
    <g id="ytick_7">
     <g id="line2d_16">
      <g>
       <use style="stroke:#000000;stroke-width:0.8;" x="57.6" xlink:href="#mea2872aa6d" y="111.100801"/>
      </g>
     </g>
     <g id="text_17">
      <!-- 600000 -->
      <defs>
       <path d="M 33.015625 40.375 
Q 26.375 40.375 22.484375 35.828125 
Q 18.609375 31.296875 18.609375 23.390625 
Q 18.609375 15.53125 22.484375 10.953125 
Q 26.375 6.390625 33.015625 6.390625 
Q 39.65625 6.390625 43.53125 10.953125 
Q 47.40625 15.53125 47.40625 23.390625 
Q 47.40625 31.296875 43.53125 35.828125 
Q 39.65625 40.375 33.015625 40.375 
z
M 52.59375 71.296875 
L 52.59375 62.3125 
Q 48.875 64.0625 45.09375 64.984375 
Q 41.3125 65.921875 37.59375 65.921875 
Q 27.828125 65.921875 22.671875 59.328125 
Q 17.53125 52.734375 16.796875 39.40625 
Q 19.671875 43.65625 24.015625 45.921875 
Q 28.375 48.1875 33.59375 48.1875 
Q 44.578125 48.1875 50.953125 41.515625 
Q 57.328125 34.859375 57.328125 23.390625 
Q 57.328125 12.15625 50.6875 5.359375 
Q 44.046875 -1.421875 33.015625 -1.421875 
Q 20.359375 -1.421875 13.671875 8.265625 
Q 6.984375 17.96875 6.984375 36.375 
Q 6.984375 53.65625 15.1875 63.9375 
Q 23.390625 74.21875 37.203125 74.21875 
Q 40.921875 74.21875 44.703125 73.484375 
Q 48.484375 72.75 52.59375 71.296875 
z
" id="DejaVuSans-54"/>
      </defs>
      <g transform="translate(12.425 114.90002)scale(0.1 -0.1)">
       <use xlink:href="#DejaVuSans-54"/>
       <use x="63.623047" xlink:href="#DejaVuSans-48"/>
       <use x="127.246094" xlink:href="#DejaVuSans-48"/>
       <use x="190.869141" xlink:href="#DejaVuSans-48"/>
       <use x="254.492188" xlink:href="#DejaVuSans-48"/>
       <use x="318.115234" xlink:href="#DejaVuSans-48"/>
      </g>
     </g>
    </g>
    <g id="ytick_8">
     <g id="line2d_17">
      <g>
       <use style="stroke:#000000;stroke-width:0.8;" x="57.6" xlink:href="#mea2872aa6d" y="80.369601"/>
      </g>
     </g>
     <g id="text_18">
      <!-- 700000 -->
      <defs>
       <path d="M 8.203125 72.90625 
L 55.078125 72.90625 
L 55.078125 68.703125 
L 28.609375 0 
L 18.3125 0 
L 43.21875 64.59375 
L 8.203125 64.59375 
z
" id="DejaVuSans-55"/>
      </defs>
      <g transform="translate(12.425 84.16882)scale(0.1 -0.1)">
       <use xlink:href="#DejaVuSans-55"/>
       <use x="63.623047" xlink:href="#DejaVuSans-48"/>
       <use x="127.246094" xlink:href="#DejaVuSans-48"/>
       <use x="190.869141" xlink:href="#DejaVuSans-48"/>
       <use x="254.492188" xlink:href="#DejaVuSans-48"/>
       <use x="318.115234" xlink:href="#DejaVuSans-48"/>
      </g>
     </g>
    </g>
    <g id="ytick_9">
     <g id="line2d_18">
      <g>
       <use style="stroke:#000000;stroke-width:0.8;" x="57.6" xlink:href="#mea2872aa6d" y="49.638401"/>
      </g>
     </g>
     <g id="text_19">
      <!-- 800000 -->
      <defs>
       <path d="M 31.78125 34.625 
Q 24.75 34.625 20.71875 30.859375 
Q 16.703125 27.09375 16.703125 20.515625 
Q 16.703125 13.921875 20.71875 10.15625 
Q 24.75 6.390625 31.78125 6.390625 
Q 38.8125 6.390625 42.859375 10.171875 
Q 46.921875 13.96875 46.921875 20.515625 
Q 46.921875 27.09375 42.890625 30.859375 
Q 38.875 34.625 31.78125 34.625 
z
M 21.921875 38.8125 
Q 15.578125 40.375 12.03125 44.71875 
Q 8.5 49.078125 8.5 55.328125 
Q 8.5 64.0625 14.71875 69.140625 
Q 20.953125 74.21875 31.78125 74.21875 
Q 42.671875 74.21875 48.875 69.140625 
Q 55.078125 64.0625 55.078125 55.328125 
Q 55.078125 49.078125 51.53125 44.71875 
Q 48 40.375 41.703125 38.8125 
Q 48.828125 37.15625 52.796875 32.3125 
Q 56.78125 27.484375 56.78125 20.515625 
Q 56.78125 9.90625 50.3125 4.234375 
Q 43.84375 -1.421875 31.78125 -1.421875 
Q 19.734375 -1.421875 13.25 4.234375 
Q 6.78125 9.90625 6.78125 20.515625 
Q 6.78125 27.484375 10.78125 32.3125 
Q 14.796875 37.15625 21.921875 38.8125 
z
M 18.3125 54.390625 
Q 18.3125 48.734375 21.84375 45.5625 
Q 25.390625 42.390625 31.78125 42.390625 
Q 38.140625 42.390625 41.71875 45.5625 
Q 45.3125 48.734375 45.3125 54.390625 
Q 45.3125 60.0625 41.71875 63.234375 
Q 38.140625 66.40625 31.78125 66.40625 
Q 25.390625 66.40625 21.84375 63.234375 
Q 18.3125 60.0625 18.3125 54.390625 
z
" id="DejaVuSans-56"/>
      </defs>
      <g transform="translate(12.425 53.43762)scale(0.1 -0.1)">
       <use xlink:href="#DejaVuSans-56"/>
       <use x="63.623047" xlink:href="#DejaVuSans-48"/>
       <use x="127.246094" xlink:href="#DejaVuSans-48"/>
       <use x="190.869141" xlink:href="#DejaVuSans-48"/>
       <use x="254.492188" xlink:href="#DejaVuSans-48"/>
       <use x="318.115234" xlink:href="#DejaVuSans-48"/>
      </g>
     </g>
    </g>
    <g id="text_20">
     <!-- Sys calls -->
     <defs>
      <path d="M 53.515625 70.515625 
L 53.515625 60.890625 
Q 47.90625 63.578125 42.921875 64.890625 
Q 37.9375 66.21875 33.296875 66.21875 
Q 25.25 66.21875 20.875 63.09375 
Q 16.5 59.96875 16.5 54.203125 
Q 16.5 49.359375 19.40625 46.890625 
Q 22.3125 44.4375 30.421875 42.921875 
L 36.375 41.703125 
Q 47.40625 39.59375 52.65625 34.296875 
Q 57.90625 29 57.90625 20.125 
Q 57.90625 9.515625 50.796875 4.046875 
Q 43.703125 -1.421875 29.984375 -1.421875 
Q 24.8125 -1.421875 18.96875 -0.25 
Q 13.140625 0.921875 6.890625 3.21875 
L 6.890625 13.375 
Q 12.890625 10.015625 18.65625 8.296875 
Q 24.421875 6.59375 29.984375 6.59375 
Q 38.421875 6.59375 43.015625 9.90625 
Q 47.609375 13.234375 47.609375 19.390625 
Q 47.609375 24.75 44.3125 27.78125 
Q 41.015625 30.8125 33.5 32.328125 
L 27.484375 33.5 
Q 16.453125 35.6875 11.515625 40.375 
Q 6.59375 45.0625 6.59375 53.421875 
Q 6.59375 63.09375 13.40625 68.65625 
Q 20.21875 74.21875 32.171875 74.21875 
Q 37.3125 74.21875 42.625 73.28125 
Q 47.953125 72.359375 53.515625 70.515625 
z
" id="DejaVuSans-83"/>
      <path d="M 32.171875 -5.078125 
Q 28.375 -14.84375 24.75 -17.8125 
Q 21.140625 -20.796875 15.09375 -20.796875 
L 7.90625 -20.796875 
L 7.90625 -13.28125 
L 13.1875 -13.28125 
Q 16.890625 -13.28125 18.9375 -11.515625 
Q 21 -9.765625 23.484375 -3.21875 
L 25.09375 0.875 
L 2.984375 54.6875 
L 12.5 54.6875 
L 29.59375 11.921875 
L 46.6875 54.6875 
L 56.203125 54.6875 
z
" id="DejaVuSans-121"/>
      <path d="M 48.78125 52.59375 
L 48.78125 44.1875 
Q 44.96875 46.296875 41.140625 47.34375 
Q 37.3125 48.390625 33.40625 48.390625 
Q 24.65625 48.390625 19.8125 42.84375 
Q 14.984375 37.3125 14.984375 27.296875 
Q 14.984375 17.28125 19.8125 11.734375 
Q 24.65625 6.203125 33.40625 6.203125 
Q 37.3125 6.203125 41.140625 7.25 
Q 44.96875 8.296875 48.78125 10.40625 
L 48.78125 2.09375 
Q 45.015625 0.34375 40.984375 -0.53125 
Q 36.96875 -1.421875 32.421875 -1.421875 
Q 20.0625 -1.421875 12.78125 6.34375 
Q 5.515625 14.109375 5.515625 27.296875 
Q 5.515625 40.671875 12.859375 48.328125 
Q 20.21875 56 33.015625 56 
Q 37.15625 56 41.109375 55.140625 
Q 45.0625 54.296875 48.78125 52.59375 
z
" id="DejaVuSans-99"/>
      <path d="M 34.28125 27.484375 
Q 23.390625 27.484375 19.1875 25 
Q 14.984375 22.515625 14.984375 16.5 
Q 14.984375 11.71875 18.140625 8.90625 
Q 21.296875 6.109375 26.703125 6.109375 
Q 34.1875 6.109375 38.703125 11.40625 
Q 43.21875 16.703125 43.21875 25.484375 
L 43.21875 27.484375 
z
M 52.203125 31.203125 
L 52.203125 0 
L 43.21875 0 
L 43.21875 8.296875 
Q 40.140625 3.328125 35.546875 0.953125 
Q 30.953125 -1.421875 24.3125 -1.421875 
Q 15.921875 -1.421875 10.953125 3.296875 
Q 6 8.015625 6 15.921875 
Q 6 25.140625 12.171875 29.828125 
Q 18.359375 34.515625 30.609375 34.515625 
L 43.21875 34.515625 
L 43.21875 35.40625 
Q 43.21875 41.609375 39.140625 45 
Q 35.0625 48.390625 27.6875 48.390625 
Q 23 48.390625 18.546875 47.265625 
Q 14.109375 46.140625 10.015625 43.890625 
L 10.015625 52.203125 
Q 14.9375 54.109375 19.578125 55.046875 
Q 24.21875 56 28.609375 56 
Q 40.484375 56 46.34375 49.84375 
Q 52.203125 43.703125 52.203125 31.203125 
z
" id="DejaVuSans-97"/>
      <path d="M 9.421875 75.984375 
L 18.40625 75.984375 
L 18.40625 0 
L 9.421875 0 
z
" id="DejaVuSans-108"/>
     </defs>
     <g transform="translate(6.345312 196.051437)rotate(-90)scale(0.1 -0.1)">
      <use xlink:href="#DejaVuSans-83"/>
      <use x="63.476562" xlink:href="#DejaVuSans-121"/>
      <use x="122.65625" xlink:href="#DejaVuSans-115"/>
      <use x="174.755859" xlink:href="#DejaVuSans-32"/>
      <use x="206.542969" xlink:href="#DejaVuSans-99"/>
      <use x="261.523438" xlink:href="#DejaVuSans-97"/>
      <use x="322.802734" xlink:href="#DejaVuSans-108"/>
      <use x="350.585938" xlink:href="#DejaVuSans-108"/>
      <use x="378.369141" xlink:href="#DejaVuSans-115"/>
     </g>
    </g>
   </g>
   <g id="line2d_19">
    <path clip-path="url(#pf1da40c4a8)" d="M 73.832727 295.488 
L 78.125541 295.467103 
L 78.293886 295.380133 
L 79.051442 295.356163 
L 79.89317 295.368148 
L 80.819071 295.429303 
L 81.071589 295.488 
L 117.2659 295.488 
L 117.434245 211.208606 
L 117.518418 210.317709 
L 117.602591 210.34383 
L 117.770936 210.239959 
L 117.939282 210.831842 
L 118.023455 210.929874 
L 118.107628 210.453541 
L 118.275973 211.057716 
L 118.360146 210.294046 
L 118.528492 211.061097 
L 118.612665 211.165275 
L 118.696837 212.252853 
L 118.78101 211.980574 
L 118.865183 211.374555 
L 119.033529 212.747625 
L 119.201874 210.987342 
L 119.286047 211.286049 
L 119.37022 212.56416 
L 119.538566 211.031287 
L 119.622738 211.671726 
L 119.791084 210.671732 
L 119.875257 211.0276 
L 119.95943 210.37241 
L 120.043602 210.409288 
L 120.127775 210.685869 
L 120.211948 210.274993 
L 120.296121 210.534979 
L 120.380294 210.265159 
L 120.548639 210.807257 
L 120.632812 210.171428 
L 120.716985 210.85612 
L 120.801158 210.149302 
L 120.885331 210.460916 
L 120.969503 215.979933 
L 121.137849 211.289737 
L 121.222022 211.317395 
L 121.306195 210.696625 
L 121.390367 211.415427 
L 121.558713 210.830305 
L 121.642886 211.228274 
L 121.727059 211.207377 
L 121.895404 210.895763 
L 122.232096 211.558327 
L 122.568787 210.854583 
L 122.65296 211.406515 
L 122.737132 211.099511 
L 122.821305 211.169271 
L 122.905478 211.087218 
L 123.073824 211.480578 
L 123.157997 210.784823 
L 123.242169 211.203689 
L 123.410515 210.96921 
L 123.494688 211.038048 
L 123.578861 210.769458 
L 123.663033 210.863495 
L 123.831379 211.166812 
L 124.083898 210.816784 
L 124.252243 211.073696 
L 124.420589 211.211372 
L 124.504762 210.848744 
L 124.588934 215.38006 
L 124.673107 212.066622 
L 124.75728 212.184937 
L 124.841453 211.783895 
L 125.009798 128.691033 
L 125.093971 128.090545 
L 125.262317 211.98795 
L 125.34649 211.764227 
L 125.430663 128.847454 
L 125.599008 212.374241 
L 125.683181 212.510995 
L 125.935699 212.180942 
L 126.019872 212.267296 
L 126.104045 212.368709 
L 126.356564 212.080451 
L 126.440736 211.817699 
L 126.524909 211.866254 
L 126.609082 211.870249 
L 126.693255 212.12163 
L 126.8616 211.822001 
L 126.945773 212.112411 
L 127.029946 211.821694 
L 127.114119 130.19932 
L 127.282464 211.971662 
L 127.366637 212.250701 
L 127.45081 212.190776 
L 127.534983 211.749168 
L 127.619156 211.881312 
L 127.703329 211.841976 
L 127.787501 211.627165 
L 127.871674 216.056453 
L 127.955847 211.191704 
L 128.04002 211.946463 
L 128.124193 211.967052 
L 128.208365 211.490719 
L 128.292538 211.664965 
L 128.376711 210.927723 
L 128.460884 210.955381 
L 128.545057 211.881312 
L 128.713402 211.344746 
L 128.881748 211.833986 
L 129.050094 211.2756 
L 129.134266 211.776826 
L 129.218439 211.080457 
L 129.302612 211.495636 
L 129.386785 211.428027 
L 129.470958 211.05495 
L 129.639303 211.558327 
L 129.723476 211.251937 
L 129.891822 211.621634 
L 129.975995 211.265459 
L 130.14434 211.614258 
L 130.228513 211.274064 
L 130.312686 211.377013 
L 130.396859 211.540196 
L 130.481031 212.07707 
L 130.565204 211.50885 
L 130.649377 211.634848 
L 130.73355 211.49287 
L 130.817723 211.661892 
L 130.901895 211.371789 
L 130.986068 211.458758 
L 131.070241 211.810938 
L 131.238587 211.419422 
L 131.406932 211.507621 
L 131.491105 211.956604 
L 131.575278 218.656927 
L 131.743624 211.717208 
L 131.827796 211.806943 
L 131.911969 211.174802 
L 131.996142 127.594236 
L 132.080315 211.598278 
L 132.164488 211.377321 
L 132.248661 211.401906 
L 132.417006 211.753471 
L 132.501179 211.552796 
L 132.585352 127.48176 
L 132.753697 211.676335 
L 132.83787 211.495636 
L 132.922043 211.579839 
L 133.006216 211.364414 
L 133.090389 211.503933 
L 133.174561 212.193541 
L 133.258734 211.384389 
L 133.342907 211.475353 
L 133.42708 211.614873 
L 133.679598 210.781135 
L 133.763771 210.812789 
L 134.01629 211.351814 
L 134.100462 211.009161 
L 134.184635 211.108423 
L 134.268808 211.085374 
L 134.437154 211.285434 
L 134.605499 211.089677 
L 134.773845 211.338907 
L 134.858018 128.209782 
L 134.942191 216.828114 
L 135.026363 210.85489 
L 135.110536 211.507621 
L 135.194709 211.48826 
L 135.363055 211.419115 
L 135.615573 211.408974 
L 135.699746 211.233499 
L 135.868092 211.425569 
L 136.036437 211.983647 
L 136.373128 211.310634 
L 136.457301 211.610263 
L 136.541474 211.509465 
L 136.70982 211.074004 
L 136.793993 211.13731 
L 136.962338 212.208907 
L 137.383202 211.179719 
L 137.551548 211.582912 
L 137.635721 210.605046 
L 137.888239 211.566318 
L 137.972412 211.03098 
L 138.056585 211.418193 
L 138.140758 210.614572 
L 138.309103 211.35335 
L 138.477449 211.269147 
L 138.561622 212.026056 
L 138.645794 218.160311 
L 138.729967 210.94862 
L 138.81414 211.382238 
L 138.898313 210.983654 
L 138.982486 211.057716 
L 139.319177 210.354586 
L 139.40335 214.212581 
L 139.571695 211.112418 
L 139.655868 210.408673 
L 139.740041 211.435403 
L 139.824214 210.208306 
L 139.992559 211.266074 
L 140.076732 211.009776 
L 140.160905 210.999327 
L 140.245078 212.856413 
L 140.329251 210.790969 
L 140.413424 211.335834 
L 140.497596 210.416049 
L 140.581769 211.39453 
L 140.665942 210.379171 
L 140.750115 210.991337 
L 140.834288 210.763926 
L 140.91846 210.85489 
L 141.002633 210.69939 
L 141.086806 211.03098 
L 141.339324 210.365957 
L 141.423497 210.688327 
L 141.50767 210.633318 
L 141.760189 210.932948 
L 141.844361 210.640387 
L 141.928534 210.898221 
L 142.012707 210.431722 
L 142.181053 211.079843 
L 142.265225 216.018961 
L 142.433571 210.901909 
L 142.517744 211.086911 
L 142.601917 210.98642 
L 142.68609 210.443707 
L 142.770262 211.409588 
L 142.854435 210.629016 
L 143.022781 211.698769 
L 143.106954 211.666194 
L 143.359472 210.579846 
L 143.443645 211.022068 
L 143.527818 210.672347 
L 143.61199 211.083838 
L 143.696163 210.930182 
L 143.780336 211.384696 
L 143.864509 211.068472 
L 143.948682 211.317702 
L 144.032855 210.490726 
L 144.285373 211.757158 
L 144.369546 210.495643 
L 144.453719 211.419422 
L 144.537891 210.286363 
L 144.622064 211.034975 
L 144.706237 210.737804 
L 144.79041 211.601966 
L 144.874583 210.495335 
L 144.958756 211.313093 
L 145.127101 210.91205 
L 145.211274 210.815247 
L 145.295447 212.238716 
L 145.463792 210.463375 
L 145.632138 211.229811 
L 145.716311 210.924036 
L 145.800484 211.046653 
L 145.884656 219.1391 
L 146.053002 210.488882 
L 146.137175 211.161895 
L 146.221348 211.106272 
L 146.305521 211.09613 
L 146.473866 210.413898 
L 146.558039 210.685561 
L 146.89473 210.072781 
L 146.978903 210.518691 
L 147.063076 210.080157 
L 147.147249 210.74856 
L 147.399767 209.78483 
L 147.568113 210.667123 
L 147.652286 210.608733 
L 147.736458 210.189253 
L 147.904804 210.733195 
L 147.988977 210.452926 
L 148.07315 210.525145 
L 148.157322 210.530062 
L 148.241495 210.29927 
L 148.325668 210.861344 
L 148.494014 210.325699 
L 148.578187 210.282061 
L 148.662359 211.539274 
L 148.746532 210.887158 
L 148.830705 210.979044 
L 148.914878 210.921577 
L 148.999051 210.574314 
L 149.167396 210.898221 
L 149.251569 210.743336 
L 149.335742 211.067243 
L 149.419915 210.706766 
L 149.58826 218.123126 
L 149.756606 210.632396 
L 149.840779 210.804491 
L 150.093297 210.484272 
L 150.17747 210.437868 
L 150.345816 210.982425 
L 150.429988 210.617031 
L 150.514161 210.96921 
L 150.598334 210.468906 
L 150.682507 210.66282 
L 150.76668 210.158521 
L 150.850853 210.681259 
L 151.103371 209.933569 
L 151.187544 210.668967 
L 151.271717 210.284212 
L 151.355889 210.359503 
L 151.440062 210.883163 
L 151.608408 209.865653 
L 151.692581 210.682488 
L 151.776753 209.872721 
L 151.860926 210.65944 
L 151.945099 210.165897 
L 152.113445 210.611807 
L 152.197618 210.703078 
L 152.28179 210.545427 
L 152.365963 210.637928 
L 152.450136 210.106893 
L 152.618482 210.652372 
L 152.871 210.357352 
L 153.123519 212.160966 
L 153.207691 214.75806 
L 153.291864 210.39423 
L 153.376037 211.252245 
L 153.46021 210.349362 
L 153.544383 210.827232 
L 153.628555 210.616724 
L 153.712728 211.016844 
L 153.796901 210.79896 
L 153.881074 211.050648 
L 153.965247 212.652051 
L 154.049419 212.307554 
L 154.301938 210.902216 
L 154.386111 211.042658 
L 154.470284 210.794964 
L 154.554456 211.822616 
L 154.638629 210.560793 
L 154.722802 211.434481 
L 154.806975 210.539588 
L 154.891148 211.383774 
L 154.97532 210.539281 
L 155.059493 211.471358 
L 155.143666 210.727663 
L 155.227839 211.358575 
L 155.312012 210.644074 
L 155.396185 211.759002 
L 155.480357 211.681252 
L 155.648703 213.043259 
L 155.817049 212.137303 
L 155.901221 212.077377 
L 155.985394 214.15327 
L 156.15374 211.904053 
L 156.237913 212.397289 
L 156.406258 212.091514 
L 156.490431 210.976586 
L 156.574604 211.430178 
L 156.658777 210.905904 
L 156.74295 211.684633 
L 156.827122 216.434447 
L 156.995468 212.574916 
L 157.079641 212.824146 
L 157.163814 212.49778 
L 157.247986 212.857643 
L 157.416332 212.132386 
L 157.500505 212.971348 
L 157.584678 212.255311 
L 157.66885 212.930168 
L 157.753023 212.831214 
L 157.837196 212.458444 
L 157.921369 212.606261 
L 158.005542 212.255926 
L 158.089715 212.98487 
L 158.173887 212.65328 
L 158.25806 212.944305 
L 158.342233 212.707367 
L 158.426406 212.903739 
L 158.678924 212.430479 
L 158.763097 212.894213 
L 158.84727 212.86594 
L 159.015616 212.312778 
L 159.099788 212.666187 
L 159.183961 212.328759 
L 159.268134 212.6499 
L 159.43648 212.49901 
L 159.520652 212.425255 
L 159.604825 212.664651 
L 159.688998 212.411733 
L 159.857344 212.707367 
L 160.025689 212.26453 
L 160.278208 213.602567 
L 160.446553 212.589052 
L 160.530726 219.809655 
L 160.699072 210.755014 
L 160.783245 211.309097 
L 161.035763 210.633318 
L 161.119936 210.858885 
L 161.204109 210.587222 
L 161.288282 211.082916 
L 161.372454 210.903753 
L 161.877491 214.213196 
L 161.961664 212.993782 
L 162.045837 214.413871 
L 162.13001 212.064163 
L 162.214182 212.501161 
L 162.298355 213.207671 
L 162.466701 215.054309 
L 162.635047 214.165255 
L 162.803392 212.006696 
L 162.887565 211.831835 
L 162.971738 212.371782 
L 163.055911 211.739949 
L 163.308429 212.206756 
L 163.392602 212.173873 
L 163.560948 211.715979 
L 163.813466 212.552174 
L 164.065984 211.601966 
L 164.150157 211.963057 
L 164.23433 219.970686 
L 164.318503 213.733175 
L 164.402676 213.845651 
L 164.571021 213.265753 
L 164.655194 214.400349 
L 164.82354 212.82937 
L 164.991885 213.013142 
L 165.076058 212.683397 
L 165.160231 212.803248 
L 165.244404 212.407123 
L 165.412749 212.908656 
L 165.581095 212.75623 
L 165.665268 212.786039 
L 165.749441 213.38161 
L 165.917786 212.431708 
L 166.001959 212.843506 
L 166.170305 212.617325 
L 166.254478 212.532507 
L 166.33865 212.663114 
L 166.506996 212.285735 
L 166.591169 212.904969 
L 166.675342 212.419108 
L 166.759514 212.801712 
L 166.843687 212.512224 
L 166.92786 213.117014 
L 167.012033 212.699684 
L 167.096206 212.855799 
L 167.432897 212.37209 
L 167.51707 212.664958 
L 167.601243 212.628695 
L 167.685415 212.182785 
L 167.769588 212.94031 
L 167.853761 212.643446 
L 168.022107 216.296771 
L 168.106279 211.592132 
L 168.190452 212.087519 
L 168.274625 211.944619 
L 168.358798 212.469508 
L 168.442971 212.366251 
L 168.527144 212.678787 
L 168.779662 211.752549 
L 168.863835 211.645297 
L 168.948008 211.7421 
L 169.116353 212.815234 
L 169.284699 212.789419 
L 169.368872 213.451677 
L 169.62139 212.67387 
L 169.705563 212.990401 
L 169.789736 129.784756 
L 169.873909 212.626851 
L 169.958081 212.42126 
L 170.042254 211.40375 
L 170.126427 211.530055 
L 170.2106 211.574308 
L 170.294773 211.188631 
L 170.378945 211.290659 
L 170.463118 211.704301 
L 170.547291 211.085067 
L 170.631464 211.414505 
L 170.715637 211.373633 
L 170.79981 211.467978 
L 170.883982 127.058899 
L 170.968155 211.615795 
L 171.052328 127.582866 
L 171.136501 211.332146 
L 171.220674 210.938172 
L 171.304846 211.434788 
L 171.389019 217.811205 
L 171.473192 211.486109 
L 171.557365 211.668345 
L 171.725711 211.577688 
L 171.809883 211.57523 
L 171.894056 211.411432 
L 171.978229 211.790348 
L 172.399093 211.000249 
L 172.483266 211.01961 
L 172.651611 211.409281 
L 172.735784 211.1453 
L 172.819957 211.637614 
L 172.988303 210.786052 
L 173.072476 213.380073 
L 173.324994 211.065399 
L 173.409167 212.278052 
L 173.577512 211.19447 
L 173.661685 211.847815 
L 173.745858 211.20707 
L 173.914204 211.540811 
L 174.166722 211.363492 
L 174.250895 212.08168 
L 174.419241 211.235957 
L 174.503413 212.176025 
L 174.671759 211.674799 
L 174.840105 211.854884 
L 174.924277 211.437247 
L 175.00845 211.77068 
L 175.092623 221.03921 
L 175.260969 210.409903 
L 175.513487 211.19109 
L 175.681833 210.368723 
L 175.766006 210.338913 
L 175.850178 211.120101 
L 175.934351 211.029751 
L 176.018524 210.785438 
L 176.102697 209.888701 
L 176.18687 210.959684 
L 176.271042 210.260242 
L 176.439388 210.756858 
L 176.607734 210.302958 
L 176.691907 210.739648 
L 176.776079 210.407751 
L 176.860252 211.314936 
L 176.944425 210.495335 
L 177.028598 213.282962 
L 177.196943 210.708303 
L 177.281116 210.507013 
L 177.449462 210.815247 
L 177.533635 210.423424 
L 177.70198 210.890539 
L 177.786153 210.161594 
L 177.870326 211.504241 
L 177.954499 210.571549 
L 178.122844 211.357653 
L 178.375363 210.364113 
L 178.627881 211.389921 
L 178.712054 214.463655 
L 178.8804 211.961828 
L 178.964573 212.522673 
L 179.048745 212.298027 
L 179.217091 212.670797 
L 179.301264 212.416343 
L 179.469609 215.773419 
L 179.722128 212.521443 
L 179.806301 220.124957 
L 179.974646 213.001157 
L 180.227165 213.63422 
L 180.311338 213.379151 
L 180.39551 213.461511 
L 180.479683 213.402199 
L 180.563856 212.580755 
L 180.648029 212.633305 
L 180.732202 212.722118 
L 180.816374 212.465205 
L 181.068893 213.053708 
L 181.153066 213.038957 
L 181.321411 213.365937 
L 181.405584 213.23871 
L 181.658103 212.479649 
L 181.826448 212.498088 
L 182.078967 214.2344 
L 182.16314 213.318611 
L 182.247312 213.518056 
L 182.331485 212.912344 
L 182.415658 213.399741 
L 182.499831 219.129266 
L 182.668176 211.701228 
L 182.752349 211.942775 
L 182.836522 211.755929 
L 182.920695 213.142828 
L 183.004868 217.945807 
L 183.08904 215.177234 
L 183.341559 218.42798 
L 183.762423 214.278039 
L 183.846596 214.061691 
L 184.183287 214.597336 
L 184.351633 214.399734 
L 184.435806 214.735626 
L 184.519978 214.217191 
L 184.604151 214.414485 
L 184.688324 213.940303 
L 184.772497 214.006989 
L 184.85667 213.705824 
L 184.940842 213.896664 
L 185.025015 213.428321 
L 185.109188 213.588123 
L 185.193361 213.255304 
L 185.277534 213.684619 
L 185.445879 215.455351 
L 185.530052 215.357011 
L 185.782571 213.766979 
L 185.866743 214.06292 
L 185.950916 213.522358 
L 186.119262 213.840734 
L 186.203435 213.991624 
L 186.287607 220.448249 
L 186.455953 213.693224 
L 186.540126 212.194463 
L 186.624299 212.220892 
L 186.708471 212.083524 
L 186.792644 212.681246 
L 186.876817 212.369938 
L 186.96099 212.768215 
L 187.045163 212.436318 
L 187.129336 212.564774 
L 187.213508 212.408045 
L 187.297681 212.702143 
L 187.381854 212.230112 
L 187.634372 213.479949 
L 187.802718 213.247314 
L 187.886891 212.315544 
L 187.971064 213.369317 
L 188.055237 212.291881 
L 188.139409 213.272207 
L 188.223582 213.203369 
L 188.307755 213.411419 
L 188.476101 212.880076 
L 188.728619 212.384382 
L 188.812792 212.711977 
L 188.896965 212.514375 
L 188.981137 212.777742 
L 189.149483 212.275594 
L 189.233656 212.520521 
L 189.402002 211.927717 
L 189.486174 212.208907 
L 189.822866 211.558942 
L 189.907038 211.835523 
L 189.991211 216.63758 
L 190.075384 211.702764 
L 190.159557 212.242404 
L 190.412075 211.621634 
L 190.664594 212.511917 
L 190.748767 212.241482 
L 190.832939 212.509765 
L 191.001285 212.01991 
L 191.253803 211.752549 
L 191.422149 213.085054 
L 191.506322 212.158201 
L 191.590495 212.36287 
L 191.75884 212.558321 
L 192.095532 211.603502 
L 192.263877 212.910808 
L 192.516396 212.358261 
L 192.768914 211.936936 
L 192.853087 212.553096 
L 192.93726 212.465205 
L 193.105605 212.363792 
L 193.442297 211.63116 
L 193.526469 211.848123 
L 193.610642 211.551567 
L 193.694815 213.891747 
L 193.863161 211.896371 
L 193.947334 212.393294 
L 194.284025 211.357038 
L 194.368198 211.493177 
L 194.45237 211.422188 
L 194.536543 211.477812 
L 194.620716 211.226738 
L 194.704889 211.692008 
L 194.789062 211.436017 
L 194.873234 211.821079 
L 194.957407 211.396681 
L 195.04158 211.50547 
L 195.294099 211.231655 
L 195.462444 211.649906 
L 195.546617 211.732881 
L 195.799135 211.378857 
L 195.883308 211.464597 
L 195.967481 211.756236 
L 196.051654 211.565088 
L 196.135827 211.943082 
L 196.304172 211.2756 
L 196.556691 211.852732 
L 196.725036 211.371482 
L 196.893382 212.597349 
L 197.1459 211.143149 
L 197.230073 211.494714 
L 197.314246 218.748506 
L 197.482592 211.802948 
L 197.566765 212.045724 
L 197.650937 211.508236 
L 197.73511 211.626551 
L 197.903456 211.123174 
L 197.987629 211.19447 
L 198.071801 210.971054 
L 198.155974 211.581376 
L 198.240147 211.518684 
L 198.32432 211.160051 
L 198.408493 211.43909 
L 198.492666 210.894534 
L 198.576838 211.164661 
L 198.661011 210.904982 
L 198.745184 211.719666 
L 198.829357 210.650221 
L 198.91353 211.986106 
L 198.997702 210.89146 
L 199.081875 210.977508 
L 199.250221 210.636699 
L 199.418566 210.967674 
L 199.502739 211.034053 
L 199.586912 211.689242 
L 199.671085 210.804491 
L 199.755258 212.023291 
L 199.839431 211.372404 
L 199.923603 211.387462 
L 200.007776 211.682482 
L 200.091949 210.713834 
L 200.176122 210.801725 
L 200.260295 210.842905 
L 200.42864 211.573386 
L 200.512813 211.15329 
L 200.596986 211.368716 
L 200.765332 211.004859 
L 200.849504 211.176646 
L 200.933677 211.459066 
L 201.01785 220.493424 
L 201.186196 212.765756 
L 201.354541 213.108717 
L 201.438714 213.064464 
L 201.522887 212.88991 
L 201.60706 212.315544 
L 201.691232 212.389606 
L 201.775405 213.001465 
L 201.859578 212.751927 
L 201.943751 212.982104 
L 202.027924 212.795873 
L 202.112097 213.072454 
L 202.196269 212.920027 
L 202.364615 213.202139 
L 202.617133 212.688928 
L 202.701306 212.962743 
L 202.785479 212.111489 
L 202.869652 212.182478 
L 202.953825 212.53435 
L 203.037998 212.149288 
L 203.12217 212.470737 
L 203.290516 211.919726 
L 203.458862 211.985491 
L 203.543034 212.405587 
L 203.71138 212.145293 
L 203.795553 212.467356 
L 203.879726 212.132079 
L 203.963898 212.568462 
L 204.216417 212.086904 
L 204.30059 212.353651 
L 204.468935 211.938472 
L 204.637281 212.529126 
L 204.721454 218.276782 
L 204.805627 211.256854 
L 204.889799 211.373633 
L 204.973972 211.344131 
L 205.058145 211.558327 
L 205.142318 211.345975 
L 205.226491 211.96275 
L 205.310663 211.452612 
L 205.394836 211.513767 
L 205.479009 212.363485 
L 205.563182 211.271605 
L 205.647355 211.595512 
L 205.731528 211.1453 
L 205.899873 211.514075 
L 205.984046 211.625936 
L 206.068219 211.235957 
L 206.152392 211.655131 
L 206.236564 211.531899 
L 206.320737 211.764841 
L 206.489083 211.015922 
L 206.573256 211.988564 
L 206.657429 211.102276 
L 206.825774 211.432022 
L 206.99412 211.424339 
L 207.078293 211.370253 
L 207.162465 212.020217 
L 207.246638 211.464905 
L 207.330811 211.928946 
L 207.499157 210.446165 
L 207.667502 211.561093 
L 207.751675 211.475046 
L 207.835848 211.105657 
L 208.004194 212.381616 
L 208.172539 211.384082 
L 208.340885 212.263609 
L 208.425058 212.214131 
L 208.593403 210.975971 
L 208.761749 211.119793 
L 208.845922 211.661277 
L 209.014267 210.913587 
L 209.182613 211.356731 
L 209.266786 210.338606 
L 209.435131 210.98181 
L 209.519304 211.160666 
L 209.603477 210.440941 
L 209.68765 211.803255 
L 209.771823 210.654216 
L 209.855995 211.191704 
L 209.940168 210.743643 
L 210.108514 211.330302 
L 210.27686 211.010698 
L 210.361032 210.975357 
L 210.445205 210.796194 
L 210.529378 211.49748 
L 210.697724 210.978122 
L 210.781896 210.837066 
L 210.866069 211.349048 
L 211.034415 210.99103 
L 211.286933 211.409896 
L 211.371106 211.195699 
L 211.455279 210.654216 
L 211.539452 211.705837 
L 211.707797 210.884085 
L 211.79197 210.738419 
L 211.876143 210.90406 
L 212.044489 213.135145 
L 212.212834 211.424647 
L 212.549526 210.891768 
L 212.633698 211.369331 
L 212.717871 210.976586 
L 212.802044 210.996868 
L 213.054562 211.275293 
L 213.222908 211.53405 
L 213.391254 211.012541 
L 213.475426 211.095823 
L 213.727945 210.480277 
L 213.812118 210.763926 
L 214.064636 210.337377 
L 214.148809 210.060796 
L 214.232982 210.138546 
L 214.4855 210.861959 
L 214.653846 210.398532 
L 214.822192 212.211058 
L 214.906364 211.912351 
L 214.990537 212.061397 
L 215.158883 212.516834 
L 215.243056 211.951687 
L 215.327228 212.017452 
L 215.579747 212.005159 
L 215.66392 216.411706 
L 215.832265 211.988564 
L 216.000611 212.537424 
L 216.084784 212.150825 
L 216.168957 212.483644 
L 216.253129 211.939702 
L 216.337302 212.063548 
L 216.421475 212.272521 
L 216.505648 212.191083 
L 216.673993 211.953531 
L 216.758166 212.095202 
L 216.842339 211.280517 
L 217.094858 212.599193 
L 217.263203 212.04849 
L 217.76824 212.105957 
L 217.852413 212.473195 
L 217.936586 214.702437 
L 218.104931 213.28665 
L 218.189104 213.265138 
L 218.273277 213.489169 
L 218.609968 212.353036 
L 218.694141 212.397597 
L 218.778314 211.900673 
L 218.862487 211.993174 
L 218.946659 212.401284 
L 219.030832 212.092743 
L 219.115005 212.566311 
L 219.199178 212.547872 
L 219.283351 212.25654 
L 219.367524 217.877891 
L 219.451696 213.342888 
L 219.535869 131.502323 
L 219.704215 214.124383 
L 219.87256 212.774054 
L 219.956733 212.95967 
L 220.040906 215.548466 
L 220.209252 213.675093 
L 220.377597 213.881299 
L 220.46177 213.641596 
L 220.545943 212.920949 
L 220.630116 130.933488 
L 220.798461 212.990094 
L 220.966807 212.504541 
L 221.135153 212.821072 
L 221.303498 212.495322 
L 221.387671 212.749161 
L 221.471844 213.844421 
L 221.556017 212.686163 
L 221.64019 213.213817 
L 221.892708 212.410811 
L 221.976881 212.844428 
L 222.061054 212.632998 
L 222.145226 132.492175 
L 222.229399 213.124082 
L 222.313572 212.833058 
L 222.397745 212.95967 
L 222.481918 212.705216 
L 222.56609 212.996548 
L 222.650263 214.269127 
L 222.734436 213.179398 
L 222.818609 214.026043 
L 222.902782 219.352374 
L 222.986955 215.366538 
L 223.071127 216.719018 
L 223.1553 216.439364 
L 223.239473 216.276181 
L 223.491991 213.231027 
L 223.576164 212.854877 
L 223.74451 213.627459 
L 223.828683 215.025114 
L 223.912855 214.687686 
L 223.997028 214.684612 
L 224.081201 214.386827 
L 224.33372 215.036792 
L 224.417892 214.653574 
L 224.586238 213.197222 
L 224.754584 212.904661 
L 224.922929 214.649272 
L 225.007102 214.644969 
L 225.091275 214.925545 
L 225.343793 214.629911 
L 225.427966 214.649886 
L 225.596312 212.990709 
L 225.680485 212.77682 
L 225.84883 213.744852 
L 225.933003 214.325365 
L 226.017176 216.188597 
L 226.185521 214.51682 
L 226.43804 214.60256 
L 226.522213 214.799547 
L 226.606386 214.552776 
L 226.690558 219.421212 
L 226.858904 213.33244 
L 227.02725 213.825675 
L 227.111422 214.724256 
L 227.195595 213.762369 
L 227.279768 213.830285 
L 227.448114 213.780501 
L 227.616459 213.832129 
L 227.700632 213.57368 
L 227.868978 214.350564 
L 227.953151 213.463047 
L 228.037323 213.647127 
L 228.121496 214.054623 
L 228.289842 213.638215 
L 228.458187 213.83428 
L 228.54236 213.873923 
L 228.626533 213.716272 
L 228.710706 213.79433 
L 228.794879 214.159416 
L 228.879052 213.528505 
L 229.047397 213.861631 
L 229.13157 213.599186 
L 229.299916 214.332126 
L 229.468261 213.668024 
L 229.552434 213.762369 
L 229.636607 214.5706 
L 229.72078 213.660956 
L 229.804953 214.050013 
L 229.973298 213.460896 
L 230.141644 213.880377 
L 230.225817 213.816149 
L 230.309989 214.034033 
L 230.394162 219.158768 
L 230.562508 211.63116 
L 230.646681 212.202453 
L 230.815026 211.97873 
L 230.899199 212.063548 
L 230.983372 212.320154 
L 231.151718 212.018681 
L 231.404236 212.238716 
L 231.572582 211.968896 
L 231.656754 212.208292 
L 231.740927 128.58163 
L 231.909273 211.966745 
L 232.330137 212.169878 
L 232.498483 211.816777 
L 232.666828 212.076763 
L 232.751001 211.535279 
L 232.835174 211.596741 
L 233.003519 212.410811 
L 233.087692 211.649292 
L 233.171865 211.724891 
L 233.256038 211.991945 
L 233.340211 211.763919 
L 233.424384 211.85181 
L 233.508556 212.270984 
L 233.592729 211.862874 
L 233.761075 212.330295 
L 233.845248 211.828455 
L 233.92942 213.770667 
L 234.013593 218.350537 
L 234.181939 213.632683 
L 234.350284 214.641281 
L 234.434457 215.438449 
L 234.602803 213.658498 
L 234.771149 215.276803 
L 234.855321 216.706418 
L 234.939494 214.350872 
L 235.023667 214.810303 
L 235.10784 216.051229 
L 235.192013 213.978717 
L 235.360358 216.625902 
L 235.612877 212.059861 
L 235.69705 213.276509 
L 235.781222 213.155428 
L 235.949568 211.844742 
L 236.117914 212.048797 
L 236.286259 213.382839 
L 236.370432 212.025134 
L 236.454605 212.154205 
L 236.62295 211.539889 
L 236.707123 211.825382 
L 236.791296 129.592379 
L 236.959642 213.030045 
L 237.127987 212.345661 
L 237.21216 213.676014 
L 237.296333 211.914809 
L 237.380506 211.943697 
L 237.464679 211.712291 
L 237.548851 212.116099 
L 237.633024 211.900366 
L 237.717197 219.750343 
L 237.80137 214.362857 
L 237.885543 215.136668 
L 237.969716 215.268813 
L 238.053888 214.230713 
L 238.138061 220.789058 
L 238.222234 213.689229 
L 238.306407 213.694761 
L 238.39058 213.828134 
L 238.474752 214.355174 
L 238.643098 213.880377 
L 238.727271 214.254683 
L 238.811444 213.849031 
L 238.895616 213.892669 
L 238.979789 213.775584 
L 239.063962 213.998692 
L 239.232308 213.85149 
L 239.400653 213.900352 
L 239.484826 213.463969 
L 239.653172 214.035262 
L 239.737345 213.595191 
L 239.821517 213.731945 
L 239.989863 213.696604 
L 240.242382 213.815227 
L 240.326554 213.866855 
L 240.4949 213.651122 
L 240.579073 214.439377 
L 240.747418 213.8183 
L 240.831591 213.81369 
L 240.915764 214.286643 
L 241.168282 213.726721 
L 241.252455 214.208893 
L 241.420801 213.578289 
L 241.504974 218.759877 
L 241.673319 212.069387 
L 241.757492 211.91358 
L 241.841665 212.328144 
L 241.925838 212.301101 
L 242.010011 212.060783 
L 242.262529 213.950444 
L 242.346702 212.122245 
L 242.430875 212.171415 
L 242.515047 212.113948 
L 242.683393 212.572457 
L 242.767566 212.373934 
L 242.935912 212.784502 
L 243.020084 211.907127 
L 243.104257 212.761454 
L 243.18843 212.127469 
L 243.272603 212.331524 
L 243.356776 212.104728 
L 243.440948 212.149596 
L 243.609294 235.163269 
L 243.693467 213.290645 
L 243.77764 213.930469 
L 243.861813 213.777427 
L 243.945985 214.176933 
L 244.030158 214.078593 
L 244.114331 213.910494 
L 244.282677 212.706445 
L 244.366849 213.345347 
L 244.451022 213.087205 
L 244.535195 213.263294 
L 244.619368 213.193842 
L 244.703541 212.68985 
L 244.787713 214.67232 
L 244.956059 213.302938 
L 245.124405 213.643132 
L 245.208578 216.584108 
L 245.376923 211.845972 
L 245.461096 212.010691 
L 245.545269 211.84382 
L 245.629442 212.34228 
L 245.713614 212.021139 
L 246.050306 212.778663 
L 246.134479 212.454449 
L 246.218651 212.600115 
L 246.302824 211.896371 
L 246.386997 211.99594 
L 246.47117 212.184937 
L 246.555343 211.837059 
L 246.639515 211.892683 
L 246.723688 211.875473 
L 246.892034 211.29281 
L 246.976207 211.889917 
L 247.060379 211.380087 
L 247.144552 211.524523 
L 247.228725 211.180948 
L 247.312898 211.491333 
L 247.481244 211.227352 
L 247.565416 211.739949 
L 247.649589 211.613029 
L 247.902108 211.229811 
L 247.98628 211.585678 
L 248.238799 211.074926 
L 248.322972 211.085989 
L 248.407145 211.29281 
L 248.743836 211.035282 
L 248.828009 211.111496 
L 248.912181 218.821339 
L 249.080527 212.523902 
L 249.248873 212.638836 
L 249.333045 212.524516 
L 249.501391 212.765142 
L 249.669737 212.76422 
L 249.75391 212.716279 
L 249.838082 213.439692 
L 250.006428 212.7676 
L 250.090601 212.495322 
L 250.174774 213.06262 
L 250.258946 212.883457 
L 250.343119 213.086283 
L 250.427292 212.592432 
L 250.511465 212.860716 
L 250.763983 212.201532 
L 250.848156 212.72304 
L 250.932329 212.413884 
L 251.100675 212.791878 
L 251.184847 212.722425 
L 251.353193 212.655739 
L 251.437366 212.533121 
L 251.521539 212.652666 
L 251.605711 212.593354 
L 251.689884 212.58014 
L 251.774057 212.684319 
L 251.85823 212.514682 
L 252.026576 212.721503 
L 252.110748 214.327209 
L 252.194921 213.448604 
L 252.279094 214.202747 
L 252.363267 214.13268 
L 252.44744 213.988551 
L 252.531612 213.407116 
L 252.615785 217.954719 
L 252.784131 213.125619 
L 252.868304 212.858872 
L 252.952476 213.308777 
L 253.036649 213.235329 
L 253.120822 213.043566 
L 253.204995 213.091814 
L 253.457513 213.05463 
L 253.710032 213.006382 
L 253.794205 214.703973 
L 253.96255 213.339508 
L 254.046723 213.904655 
L 254.130896 213.778042 
L 254.299242 214.594263 
L 254.383414 214.156958 
L 254.467587 214.667096 
L 254.55176 214.216576 
L 254.635933 215.460883 
L 254.720106 214.187074 
L 254.804278 214.518664 
L 254.888451 214.686456 
L 254.972624 214.518971 
L 255.14097 214.007911 
L 255.225142 213.988243 
L 255.393488 213.388063 
L 255.561834 214.056467 
L 255.646007 213.924937 
L 255.730179 213.958434 
L 255.898525 213.685234 
L 256.151043 214.012828 
L 256.319389 213.465198 
L 256.403562 218.800749 
L 256.571908 213.808466 
L 256.65608 214.677852 
L 256.740253 214.436304 
L 256.824426 214.143436 
L 256.908599 214.554005 
L 257.161117 213.951673 
L 257.24529 214.045403 
L 257.329463 213.688 
L 257.497808 214.083203 
L 257.666154 213.706746 
L 257.8345 214.042945 
L 257.918673 213.377307 
L 258.002845 213.583206 
L 258.087018 213.261758 
L 258.255364 214.047247 
L 258.339537 213.936922 
L 258.507882 213.343503 
L 258.592055 214.10871 
L 258.676228 213.965502 
L 258.760401 213.443072 
L 258.844574 213.728565 
L 259.012919 213.39298 
L 259.097092 213.907113 
L 259.181265 213.586587 
L 259.34961 213.737784 
L 259.433783 213.252846 
L 259.517956 213.41818 
L 259.602129 214.712885 
L 259.770474 213.23871 
L 259.93882 213.882221 
L 260.022993 213.117014 
L 260.107166 213.265753 
L 260.191339 218.367132 
L 260.275511 211.946155 
L 260.359684 212.409889 
L 260.443857 211.537738 
L 260.52803 211.589059 
L 260.612203 211.996862 
L 260.696375 215.115157 
L 260.864721 211.916961 
L 260.948894 211.957833 
L 261.033067 212.156664 
L 261.285585 211.75808 
L 261.369758 211.807558 
L 261.453931 211.706145 
L 261.538104 212.066622 
L 261.622276 211.859186 
L 261.706449 211.908663 
L 261.790622 211.81524 
L 261.874795 212.039578 
L 262.127313 211.711983 
L 262.211486 211.857342 
L 262.295659 211.765456 
L 262.379832 212.169264 
L 262.464005 211.806328 
L 262.548177 212.014686 
L 262.800696 211.68955 
L 262.884869 211.693237 
L 263.053214 212.010076 
L 263.137387 212.007618 
L 263.22156 212.377621 
L 263.305733 211.964594 
L 263.389905 212.120094 
L 263.558251 211.393608 
L 263.642424 211.545113 
L 263.726597 211.454456 
L 263.81077 211.574615 
L 263.894942 218.822876 
L 263.979115 213.377 
L 264.063288 213.586587 
L 264.399979 212.783273 
L 264.484152 212.92771 
L 264.652498 213.232256 
L 264.820843 212.887759 
L 264.989189 213.622542 
L 265.073362 213.446145 
L 265.157535 213.295562 
L 265.410053 212.632383 
L 265.494226 212.966124 
L 265.578399 212.930783 
L 265.662571 213.084746 
L 265.746744 213.555241 
L 265.830917 213.106565 
L 265.91509 213.506071 
L 265.999263 213.288494 
L 266.167608 213.901889 
L 266.251781 213.62162 
L 266.335954 213.973492 
L 266.756818 213.27866 
L 266.840991 213.469808 
L 266.925164 213.347805 
L 267.009337 212.527282 
L 267.093509 212.845965 
L 267.177682 212.440006 
L 267.261855 212.974728 
L 267.430201 212.314315 
L 267.514373 212.874237 
L 267.598546 217.591169 
L 267.682719 210.942474 
L 267.766892 211.192012 
L 267.851065 211.239338 
L 267.935237 212.241175 
L 268.103583 211.145915 
L 268.271929 211.035897 
L 268.440274 211.965516 
L 268.524447 210.866568 
L 268.60862 211.057102 
L 268.692793 210.751326 
L 268.776966 211.604424 
L 268.861138 211.038048 
L 269.029484 211.408359 
L 269.19783 211.807558 
L 269.282002 211.277752 
L 269.534521 213.625923 
L 269.618694 213.62623 
L 269.871212 211.087526 
L 270.039558 211.474124 
L 270.292076 211.224587 
L 270.376249 211.194163 
L 270.460422 211.613644 
L 270.544595 211.407745 
L 270.628768 211.524523 
L 270.71294 211.173266 
L 270.881286 211.364721 
L 271.133804 211.143456 
L 271.217977 211.111189 
L 271.30215 219.829015 
L 271.470496 212.555555 
L 271.554668 212.56754 
L 271.638841 212.125625 
L 271.723014 214.581048 
L 271.807187 213.540797 
L 271.89136 216.722398 
L 271.975533 213.429243 
L 272.059705 213.567533 
L 272.312224 212.479649 
L 272.396397 212.349656 
L 272.648915 212.814312 
L 272.733088 212.736562 
L 272.901434 212.489176 
L 272.985606 212.576145 
L 273.069779 213.332132 
L 273.238125 212.550638 
L 273.322298 212.97565 
L 273.490643 212.288808 
L 273.574816 212.340437 
L 273.658989 212.83275 
L 273.827334 212.295262 
L 273.911507 212.267911 
L 274.248199 212.798024 
L 274.332371 212.638222 
L 274.500717 212.190468 
L 274.58489 212.353344 
L 274.669063 212.812775 
L 274.837408 212.447688 
L 274.921581 212.762991 
L 275.005754 218.128965 
L 275.089927 211.11334 
L 275.1741 211.521143 
L 275.258272 211.600122 
L 275.426618 210.966752 
L 275.510791 211.120101 
L 275.679136 210.566017 
L 275.931655 211.598278 
L 276.1 211.518992 
L 276.268346 210.703693 
L 276.352519 211.541425 
L 276.436692 211.127783 
L 276.520865 211.172036 
L 276.605037 211.242411 
L 276.68921 213.043259 
L 276.773383 212.798639 
L 277.110074 211.942467 
L 277.194247 211.697233 
L 277.27842 211.801719 
L 277.530938 211.149603 
L 277.699284 211.264845 
L 277.783457 211.249172 
L 277.86763 211.420959 
L 277.951802 211.10535 
L 278.035975 211.365336 
L 278.204321 211.032517 
L 278.456839 210.977815 
L 278.709358 213.306933 
L 278.793531 213.113634 
L 278.961876 212.32292 
L 279.046049 212.705216 
L 279.130222 218.071805 
L 279.214395 212.992245 
L 279.298567 213.636986 
L 279.38274 213.410497 
L 279.466913 212.803863 
L 279.551086 212.946763 
L 279.803604 212.564774 
L 280.056123 213.122546 
L 280.476987 212.355495 
L 280.645332 212.560472 
L 280.729505 212.241175 
L 280.813678 212.381002 
L 280.897851 212.922793 
L 280.982024 212.834287 
L 281.234542 212.07246 
L 281.318715 212.115791 
L 281.402888 212.297106 
L 281.487061 212.979338 
L 281.571233 212.945534 
L 281.655406 213.094273 
L 281.907925 212.251009 
L 282.07627 212.410196 
L 282.160443 212.131464 
L 282.328789 212.442464 
L 282.412962 219.079481 
L 282.497134 211.133315 
L 282.581307 211.551259 
L 282.749653 223.353577 
L 283.002171 212.015915 
L 283.086344 211.99932 
L 283.338863 211.4437 
L 283.423035 212.052793 
L 283.507208 213.930469 
L 283.675554 211.919726 
L 283.759727 211.975043 
L 283.843899 212.369324 
L 283.928072 211.804792 
L 284.012245 212.331524 
L 284.180591 211.657282 
L 284.348936 212.298335 
L 284.433109 211.797724 
L 284.517282 212.115791 
L 284.685628 211.792192 
L 284.7698 211.726427 
L 284.853973 211.806943 
L 285.190664 211.231655 
L 285.274837 211.164046 
L 285.443183 211.349355 
L 285.527356 211.031595 
L 285.611529 211.361955 
L 285.779874 211.121944 
L 285.864047 211.049112 
L 286.032393 211.866254 
L 286.116565 218.660922 
L 286.284911 212.768522 
L 286.369084 212.60872 
L 286.621602 212.948914 
L 286.705775 212.51376 
L 286.789948 212.95168 
L 286.874121 212.847809 
L 286.958294 212.539575 
L 287.042466 212.640373 
L 287.294985 212.775283 
L 287.379158 212.731952 
L 287.547503 212.880076 
L 287.631676 212.727035 
L 287.715849 212.831214 
L 287.884194 212.597964 
L 288.220886 212.726728 
L 288.305059 212.355495 
L 288.389231 212.415421 
L 288.557577 212.825375 
L 288.64175 212.397597 
L 288.725923 212.444001 
L 288.894268 212.835209 
L 289.062614 212.505463 
L 289.315132 212.842892 
L 289.483478 212.509765 
L 289.651824 212.769137 
L 289.735996 212.591203 
L 289.820169 217.530322 
L 289.988515 211.122252 
L 290.072688 211.143764 
L 290.15686 210.978122 
L 290.241033 211.18648 
L 290.325206 211.018995 
L 290.74607 211.754085 
L 290.830243 211.62778 
L 290.914416 212.280818 
L 291.166934 211.684633 
L 291.251107 211.712291 
L 291.33528 211.540811 
L 291.671971 212.311549 
L 291.756144 211.975043 
L 291.840317 212.096431 
L 292.008662 211.867791 
L 292.177008 212.134845 
L 292.345354 211.890839 
L 292.429526 212.290652 
L 292.513699 212.103499 
L 292.597872 211.522679 
L 292.766218 212.235336 
L 292.850391 212.044802 
L 293.018736 212.298949 
L 293.102909 212.190161 
L 293.187082 212.422182 
L 293.271255 212.262994 
L 293.355427 212.42802 
L 293.4396 213.056473 
L 293.523773 217.544151 
L 293.607946 213.077371 
L 293.692119 214.306619 
L 293.776292 214.230098 
L 293.944637 214.396661 
L 294.02881 214.827205 
L 294.112983 214.229176 
L 294.281328 214.729173 
L 294.533847 212.766371 
L 294.61802 212.361026 
L 294.870538 214.845029 
L 295.038884 214.193528 
L 295.291402 214.752528 
L 295.628093 212.099504 
L 295.712266 212.700914 
L 295.796439 214.497152 
L 295.880612 214.238703 
L 295.964785 214.249151 
L 296.13313 214.459353 
L 296.301476 214.209815 
L 296.385649 214.290946 
L 296.553994 214.539869 
L 296.806513 212.665573 
L 296.890686 212.440313 
L 297.059031 214.580741 
L 297.143204 214.366545 
L 297.227377 220.870188 
L 297.31155 212.137918 
L 297.395723 212.569691 
L 297.648241 212.474732 
L 297.732414 212.581984 
L 297.900759 213.435082 
L 298.069105 212.771288 
L 298.237451 212.817077 
L 298.489969 213.595191 
L 298.574142 213.465813 
L 298.658315 213.752842 
L 298.82666 213.402507 
L 298.995006 212.587208 
L 299.079179 213.34842 
L 299.163352 213.337664 
L 299.247524 213.42955 
L 299.331697 213.018674 
L 299.41587 213.18493 
L 299.752561 212.353958 
L 299.836734 212.421567 
L 300.00508 212.952909 
L 300.089253 212.656661 
L 300.257598 213.089663 
L 300.341771 213.096117 
L 300.510117 212.684011 
L 300.594289 212.776512 
L 300.762635 213.344425 
L 300.846808 213.274358 
L 300.930981 212.965509 
L 301.015154 214.068452 
L 301.099326 213.062005 
L 301.183499 214.146202 
L 301.351845 213.364093 
L 301.436018 213.665873 
L 301.52019 213.628688 
L 301.604363 213.616089 
L 301.941055 213.165569 
L 302.025227 213.641903 
L 302.1094 213.086283 
L 302.446091 213.701214 
L 302.614437 213.273743 
L 302.866955 213.891747 
L 302.951128 212.89452 
L 303.035301 213.11179 
L 303.119474 213.073068 
L 303.28782 213.321684 
L 303.371992 213.215354 
L 303.456165 213.645283 
L 303.540338 213.500847 
L 303.624511 213.897279 
L 303.708684 216.145881 
L 303.792856 213.652044 
L 303.877029 213.672019 
L 303.961202 213.46735 
L 304.213721 213.947678 
L 304.297893 213.875153 
L 304.382066 214.016209 
L 304.466239 214.544171 
L 304.550412 214.051857 
L 304.634585 214.237166 
L 304.718757 219.350531 
L 304.887103 215.10901 
L 304.971276 215.2977 
L 305.055449 215.120995 
L 305.307967 216.299844 
L 305.39214 216.063829 
L 305.476313 215.83273 
L 305.560486 216.196895 
L 305.813004 215.082274 
L 305.897177 215.376679 
L 305.98135 214.739007 
L 306.065522 215.030031 
L 306.233868 216.132359 
L 306.318041 215.622836 
L 306.486386 213.443994 
L 306.570559 219.725758 
L 306.654732 213.171715 
L 306.738905 213.609635 
L 306.823078 213.507915 
L 306.907251 213.726721 
L 306.991423 214.839805 
L 307.159769 213.682161 
L 307.243942 213.908035 
L 307.328115 213.841963 
L 307.49646 213.027893 
L 307.580633 213.056781 
L 307.833152 214.04356 
L 307.917324 215.669855 
L 308.08567 213.636064 
L 308.422361 213.81031 
L 308.506534 214.335506 
L 308.590707 218.552134 
L 308.759052 214.379452 
L 308.843225 213.436926 
L 308.927398 215.906792 
L 309.011571 215.868378 
L 309.095744 214.038335 
L 309.179917 214.473489 
L 309.348262 213.898508 
L 309.516608 214.578283 
L 309.684953 212.970733 
L 309.769126 213.156657 
L 309.853299 213.131458 
L 310.021645 214.203976 
L 310.105818 213.889596 
L 310.358336 215.075206 
L 310.526682 214.762362 
L 310.863373 212.859486 
L 311.115891 214.924009 
L 311.284237 215.282642 
L 311.36841 214.882829 
L 311.452583 215.014973 
L 311.536755 215.956577 
L 311.620928 214.689222 
L 311.705101 214.785411 
L 311.957619 213.406195 
L 312.041792 215.797697 
L 312.125965 215.688293 
L 312.294311 214.64712 
L 312.378484 220.674123 
L 312.462656 213.467657 
L 312.546829 213.87884 
L 312.715175 213.765135 
L 312.88352 214.298936 
L 312.967693 213.347498 
L 313.051866 213.501154 
L 313.136039 213.225802 
L 313.220212 213.947986 
L 313.388557 213.606562 
L 313.556903 214.654189 
L 313.809421 214.260829 
L 314.06194 213.379151 
L 314.230285 213.365629 
L 314.482804 214.007911 
L 314.566977 214.12131 
L 314.65115 214.934764 
L 314.819495 214.146202 
L 314.903668 213.978102 
L 315.072014 212.963051 
L 315.240359 212.983641 
L 315.57705 215.152649 
L 315.745396 213.947986 
L 315.829569 214.024814 
L 315.997915 213.312772 
L 316.082087 216.99314 
L 316.16626 213.692609 
L 316.250433 213.949215 
L 316.502951 215.370226 
L 316.587124 215.27711 
L 316.671297 216.834875 
L 316.75547 214.368696 
L 316.839643 214.581663 
L 316.923815 214.446446 
L 317.007988 213.892362 
L 317.092161 213.931391 
L 317.260507 213.27067 
L 317.34468 213.504534 
L 317.513025 215.363157 
L 317.597198 215.122532 
L 317.681371 215.892656 
L 317.849716 214.039257 
L 318.102235 215.635743 
L 318.186408 215.274959 
L 318.270581 214.35794 
L 318.354753 215.808452 
L 318.438926 213.8435 
L 318.523099 214.463348 
L 318.607272 219.597917 
L 318.691445 218.635108 
L 319.028136 213.604411 
L 319.112309 214.262058 
L 319.196481 213.656961 
L 319.364827 215.547852 
L 319.449 215.300466 
L 319.617346 216.084419 
L 319.701518 215.653567 
L 319.785691 215.70581 
L 319.869864 215.862232 
L 319.954037 219.481138 
L 320.122382 212.219048 
L 320.206555 212.592125 
L 320.290728 212.231033 
L 320.374901 212.598579 
L 320.459074 213.574909 
L 320.543247 213.443072 
L 320.627419 213.369624 
L 320.711592 214.121002 
L 320.795765 216.146188 
L 321.132456 212.025749 
L 321.216629 212.490097 
L 321.300802 213.169872 
L 321.469147 212.85457 
L 321.55332 215.077972 
L 321.721666 213.072454 
L 321.805839 213.188925 
L 321.974184 213.971034 
L 322.058357 213.703673 
L 322.14253 213.760833 
L 322.226703 214.372691 
L 322.310876 216.323507 
L 322.395048 214.614545 
L 322.479221 215.010978 
L 322.563394 216.395726 
L 322.647567 216.262967 
L 322.815913 215.413557 
L 322.900085 217.607764 
L 322.984258 213.943683 
L 323.068431 214.32475 
L 323.152604 214.140363 
L 323.236777 213.552168 
L 323.320949 213.623464 
L 323.489295 213.43078 
L 323.657641 213.767286 
L 323.741813 219.333014 
L 323.910159 212.842277 
L 323.994332 212.985792 
L 324.078505 212.705216 
L 324.162678 213.141906 
L 324.24685 212.036198 
L 324.331023 212.431708 
L 324.415196 212.227038 
L 324.499369 213.982097 
L 324.583542 213.049405 
L 324.667714 213.563538 
L 324.751887 212.963358 
L 324.83606 213.020825 
L 324.920233 212.946763 
L 325.004406 212.632076 
L 325.088578 212.722425 
L 325.172751 212.558013 
L 325.256924 212.136074 
L 325.341097 212.561701 
L 325.42527 212.326607 
L 325.509443 212.847194 
L 325.593615 212.826911 
L 325.677788 212.855491 
L 325.846134 212.60073 
L 326.014479 212.067543 
L 326.435344 212.844736 
L 326.519516 212.510995 
L 326.772035 213.554934 
L 326.856208 214.570907 
L 326.94038 212.573072 
L 327.108726 214.101334 
L 327.192899 213.542334 
L 327.277072 213.584436 
L 327.361244 213.972571 
L 327.445417 218.837319 
L 327.52959 214.654496 
L 327.613763 215.757439 
L 327.950454 213.876689 
L 328.1188 214.44829 
L 328.287145 213.398512 
L 328.539664 213.767286 
L 328.623837 213.822295 
L 328.70801 213.656961 
L 328.876355 214.317682 
L 329.044701 213.547558 
L 329.297219 213.201217 
L 329.381392 214.86439 
L 329.549738 213.219042 
L 329.718083 214.277424 
L 329.802256 215.789399 
L 329.886429 213.935386 
L 329.970602 214.081666 
L 330.054775 213.590889 
L 330.138947 132.025982 
L 330.307293 213.659112 
L 330.475639 214.14866 
L 330.559811 132.673181 
L 330.643984 214.132065 
L 330.728157 213.963044 
L 330.81233 213.464277 
L 330.896503 53.568 
L 331.064848 215.249452 
L 331.317367 214.585351 
L 331.485712 214.856093 
L 331.569885 214.767279 
L 331.654058 215.270656 
L 331.822404 214.559844 
L 331.906576 214.904648 
L 332.159095 214.262673 
L 332.495786 214.972256 
L 332.664132 214.637286 
L 332.832477 215.298007 
L 332.91665 215.224252 
L 333.000823 214.046325 
L 333.084996 214.083817 
L 333.253342 214.353945 
L 333.337514 214.160953 
L 333.590033 215.066909 
L 333.758378 214.32936 
L 334.010897 214.519586 
L 334.09507 214.490084 
L 334.179242 213.930161 
L 334.431761 214.897887 
L 334.515934 215.322592 
L 334.600107 214.501762 
L 334.684279 220.958694 
L 334.768452 213.340737 
L 334.852625 213.566611 
L 334.936798 213.973492 
L 335.105143 212.864711 
L 335.189316 212.950758 
L 335.273489 213.647434 
L 335.357662 213.603182 
L 335.441835 213.939381 
L 335.61018 213.184008 
L 335.778526 213.802012 
L 335.862699 213.421253 
L 335.946872 214.759904 
L 336.031044 213.628074 
L 336.115217 214.294634 
L 336.19939 213.501461 
L 336.283563 213.705209 
L 336.367736 213.112712 
L 336.451908 213.379458 
L 336.536081 213.136682 
L 336.704427 213.309699 
L 336.872773 213.353644 
L 336.956945 213.717502 
L 337.041118 222.123714 
L 337.125291 213.700292 
L 337.209464 214.052779 
L 337.293637 213.859787 
L 337.377809 214.101642 
L 337.461982 214.070603 
L 337.546155 213.580748 
L 337.714501 214.079822 
L 337.798673 214.05493 
L 337.882846 214.440607 
L 337.967019 213.476876 
L 338.051192 213.880684 
L 338.219538 213.483023 
L 338.30371 133.070536 
L 338.387883 217.572423 
L 338.472056 212.788805 
L 338.640402 213.465198 
L 338.808747 213.326293 
L 338.89292 213.252846 
L 338.977093 213.362864 
L 339.061266 213.204291 
L 339.145439 213.272514 
L 339.229611 213.304782 
L 339.397957 213.622235 
L 339.48213 213.003001 
L 339.566303 213.110253 
L 339.650475 213.066615 
L 339.734648 213.521129 
L 339.818821 212.996855 
L 340.071339 214.08351 
L 340.239685 213.491013 
L 340.323858 213.901581 
L 340.492204 213.215046 
L 340.576376 213.164955 
L 340.660549 212.506385 
L 340.744722 212.720889 
L 340.828895 212.505156 
L 341.081413 213.225802 
L 341.165586 212.93908 
L 341.249759 213.235944 
L 341.333932 212.867169 
L 341.418105 213.401278 
L 341.58645 213.085975 
L 341.754796 213.497159 
L 341.838969 213.269748 
L 341.923141 213.349956 
L 342.007314 213.219963 
L 342.091487 217.138499 
L 342.259833 213.244856 
L 342.428178 213.235022 
L 342.512351 216.287552 
L 342.596524 212.071231 
L 342.680697 213.98517 
L 342.849042 212.628081 
L 342.933215 212.231341 
L 343.017388 212.305403 
L 343.185734 212.517141 
L 343.438252 212.668338 
L 343.522425 212.985484 
L 343.606598 212.69108 
L 343.69077 212.955061 
L 343.774943 212.271291 
L 343.859116 212.754693 
L 344.027462 212.435089 
L 344.195807 212.444923 
L 344.364153 212.348427 
L 344.448326 212.615788 
L 344.532499 212.516526 
L 344.616671 212.227346 
L 344.700844 212.260228 
L 344.785017 212.526975 
L 344.953363 212.28635 
L 345.121708 212.262379 
L 345.205881 212.363178 
L 345.4584 212.022061 
L 345.626745 212.277745 
L 345.710918 212.25316 
L 345.795091 212.611486 
L 345.879264 219.306892 
L 346.047609 214.211352 
L 346.131782 214.115778 
L 346.215955 214.960886 
L 346.384301 213.979946 
L 346.552646 214.357018 
L 346.636819 214.286643 
L 346.805165 214.1167 
L 346.889337 214.079208 
L 346.97351 214.298321 
L 347.057683 221.268465 
L 347.141856 212.411733 
L 347.226029 212.910193 
L 347.394374 212.336441 
L 347.478547 213.293718 
L 347.56272 212.772517 
L 347.646893 212.831214 
L 347.815238 212.578911 
L 348.15193 213.192305 
L 348.320275 213.116399 
L 348.488621 212.845965 
L 348.572794 213.074605 
L 348.656967 212.962743 
L 348.741139 214.29279 
L 348.825312 212.791263 
L 348.909485 212.857028 
L 348.993658 212.875467 
L 349.077831 212.613944 
L 349.246176 213.074298 
L 349.330349 217.111148 
L 349.414522 212.593047 
L 349.498695 212.801405 
L 349.582868 218.652932 
L 349.66704 214.057696 
L 349.751213 218.054596 
L 349.835386 213.183086 
L 349.919559 130.87725 
L 350.087904 213.101956 
L 350.172077 213.162189 
L 350.25625 131.436558 
L 350.340423 213.247314 
L 350.424596 213.17233 
L 350.677114 213.099804 
L 350.761287 213.109946 
L 350.84546 213.502998 
L 350.929633 130.643693 
L 351.013805 214.431387 
L 351.097978 213.872387 
L 351.266324 214.89635 
L 351.350497 134.075139 
L 351.434669 214.544478 
L 351.518842 214.318911 
L 351.687188 213.27405 
L 351.771361 216.914776 
L 351.855534 213.653888 
L 351.939706 213.96458 
L 352.023879 213.688 
L 352.192225 213.961507 
L 352.444743 213.446452 
L 352.613089 213.616703 
L 352.697262 213.298635 
L 352.865607 213.692302 
L 352.94978 213.614552 
L 353.118126 216.836718 
L 353.202299 211.502704 
L 353.286471 212.129313 
L 353.370644 212.04388 
L 353.454817 212.856106 
L 353.53899 212.204605 
L 353.623163 212.30233 
L 353.707335 212.206449 
L 353.875681 212.723347 
L 353.959854 212.558013 
L 354.044027 212.610871 
L 354.128199 212.517448 
L 354.212372 212.010691 
L 354.296545 214.056467 
L 354.380718 212.950451 
L 354.464891 213.39298 
L 354.549064 215.234394 
L 354.633236 212.023291 
L 354.717409 212.054022 
L 354.801582 212.173259 
L 354.885755 212.084753 
L 355.138273 212.725498 
L 355.222446 212.018066 
L 355.390792 212.984562 
L 355.474965 212.582598 
L 355.559137 212.729801 
L 355.64331 212.507307 
L 355.811656 213.158808 
L 355.895829 213.055244 
L 355.980001 215.128064 
L 356.064174 214.738699 
L 356.148347 222.277063 
L 356.23252 212.345354 
L 356.316693 212.610564 
L 356.485038 212.708596 
L 356.569211 212.812468 
L 356.653384 213.734096 
L 356.737557 216.526026 
L 356.990075 214.376686 
L 357.242594 213.930469 
L 357.326766 214.061998 
L 357.410939 215.176619 
L 357.579285 214.168021 
L 357.663458 215.143429 
L 357.747631 214.551854 
L 357.831803 214.575824 
L 357.915976 214.411719 
L 358.084322 219.513099 
L 358.252667 213.956283 
L 358.33684 215.050006 
L 358.421013 214.100105 
L 358.505186 215.026651 
L 358.589359 214.863775 
L 358.757704 213.845958 
L 358.841877 213.890211 
L 359.010223 213.816456 
L 359.094396 216.99314 
L 359.262741 213.364707 
L 359.346914 219.769089 
L 359.431087 213.450447 
L 359.51526 130.982351 
L 359.683605 213.550938 
L 359.767778 214.475026 
L 359.851951 214.222415 
L 360.020297 214.023277 
L 360.104469 214.720875 
L 360.188642 214.590882 
L 360.272815 214.070603 
L 360.441161 214.669247 
L 360.525333 217.726079 
L 360.693679 214.657569 
L 360.777852 214.316145 
L 360.862025 214.554005 
L 360.946197 215.52634 
L 361.114543 214.628374 
L 361.198716 214.554312 
L 361.282889 214.007604 
L 361.367062 214.037721 
L 361.535407 214.012521 
L 361.703753 215.45658 
L 361.787926 215.083196 
L 361.956271 215.1296 
L 362.124617 214.225488 
L 362.20879 214.215347 
L 362.292963 214.970413 
L 362.377135 219.68212 
L 362.545481 213.78972 
L 362.629654 214.064764 
L 362.713827 213.807544 
L 362.797999 132.170726 
L 362.966345 214.093344 
L 363.218863 213.540183 
L 363.303036 221.895381 
L 363.387209 212.319847 
L 363.471382 212.783273 
L 363.555555 213.46274 
L 363.639728 220.371421 
L 363.808073 212.681246 
L 363.976419 212.258692 
L 364.144764 212.639758 
L 364.228937 222.40767 
L 364.397283 213.510373 
L 364.565628 213.28204 
L 364.649801 213.240553 
L 364.733974 213.613937 
L 364.90232 212.895749 
L 365.070665 213.983634 
L 365.239011 213.017752 
L 365.323184 213.35303 
L 365.491529 213.02605 
L 365.659875 213.596421 
L 365.744048 131.895375 
L 365.912394 216.626824 
L 365.996566 213.003309 
L 366.080739 213.433238 
L 366.249085 213.263294 
L 366.333258 213.056166 
L 366.754122 213.660649 
L 366.838294 213.35979 
L 367.00664 213.516212 
L 367.090813 214.01498 
L 367.174986 213.678473 
L 367.259159 131.900292 
L 367.343331 225.785336 
L 367.427504 215.404337 
L 367.59585 214.82321 
L 367.680023 214.808152 
L 367.764195 215.156336 
L 367.848368 218.841315 
L 368.016714 212.078607 
L 368.18506 212.46121 
L 368.269232 212.214439 
L 368.353405 212.570306 
L 368.437578 212.444923 
L 368.521751 212.133308 
L 368.605924 212.23718 
L 368.690096 212.300179 
L 368.774269 212.058017 
L 368.942615 212.26914 
L 369.11096 212.154205 
L 369.195133 212.452605 
L 369.279306 212.135459 
L 369.363479 212.321383 
L 369.447652 212.227653 
L 369.615997 212.730723 
L 369.784343 212.11364 
L 369.952689 212.660963 
L 370.121034 212.054636 
L 370.205207 212.357953 
L 370.28938 212.210136 
L 370.373553 212.616095 
L 370.541898 212.180327 
L 370.626071 212.369017 
L 370.710244 212.271599 
L 370.794417 212.583213 
L 370.87859 211.980574 
L 370.962762 212.099197 
L 371.046935 212.357031 
L 371.131108 212.222121 
L 371.299454 213.310006 
L 371.383626 212.55617 
L 371.467799 213.0534 
L 371.551972 219.974374 
L 371.720318 213.488554 
L 371.888663 213.60902 
L 371.972836 212.962743 
L 372.057009 213.351186 
L 372.225355 212.916032 
L 372.309527 213.173559 
L 372.3937 212.912037 
L 372.477873 212.999313 
L 372.646219 212.956904 
L 372.730391 213.320762 
L 372.814564 212.911115 
L 372.898737 213.284806 
L 372.98291 212.98026 
L 373.067083 213.25008 
L 373.151256 212.966431 
L 373.235428 213.57368 
L 373.403774 213.11978 
L 373.487947 213.131765 
L 373.57212 213.486096 
L 373.656292 213.080751 
L 373.740465 213.647434 
L 373.908811 213.184623 
L 374.161329 213.326293 
L 374.245502 214.235015 
L 374.413848 213.220271 
L 374.498021 213.232256 
L 374.582193 215.008827 
L 374.834712 213.395746 
L 374.918885 213.126233 
L 375.171403 213.772818 
L 375.255576 221.927342 
L 375.423922 214.182772 
L 375.508094 213.179091 
L 375.67644 218.022635 
L 375.760613 217.461176 
L 375.844786 218.829637 
L 375.928958 215.257442 
L 376.013131 216.96118 
L 376.181477 212.823838 
L 376.26565 212.928017 
L 376.349823 212.610564 
L 376.433995 213.63084 
L 376.518168 212.550945 
L 376.602341 212.876081 
L 376.686514 213.439999 
L 376.770687 213.04203 
L 376.854859 214.555541 
L 376.939032 212.903432 
L 377.107378 214.001765 
L 377.191551 213.582284 
L 377.275723 213.649893 
L 377.444069 213.111175 
L 377.528242 213.369317 
L 377.612415 212.588437 
L 377.696588 213.26606 
L 377.78076 213.174481 
L 377.864933 213.568763 
L 377.949106 213.247314 
L 378.033279 213.304474 
L 378.201624 213.102263 
L 378.36997 214.166792 
L 378.454143 213.422789 
L 378.622489 214.392666 
L 378.706661 213.567226 
L 378.95918 214.983627 
L 379.043353 219.07395 
L 379.127525 215.654182 
L 379.211698 216.014044 
L 379.295871 215.633899 
L 379.380044 215.922772 
L 379.548389 215.48178 
L 379.632562 215.399727 
L 379.716735 215.484238 
L 379.800908 215.031875 
L 379.969254 213.092429 
L 380.053426 213.235944 
L 380.137599 213.018367 
L 380.305945 213.865626 
L 380.390118 213.75315 
L 380.47429 214.036491 
L 380.558463 213.625308 
L 380.642636 213.987629 
L 380.726809 213.668024 
L 380.810982 213.692302 
L 380.895155 213.808466 
L 380.979327 213.140062 
L 381.0635 213.211973 
L 381.147673 213.763291 
L 381.316019 215.389893 
L 381.484364 216.240533 
L 381.65271 215.560144 
L 381.736883 217.628661 
L 381.905228 213.040493 
L 381.989401 212.908656 
L 382.073574 213.100112 
L 382.157747 213.033118 
L 382.24192 213.016523 
L 382.326092 213.5451 
L 382.410265 213.448604 
L 382.494438 213.597343 
L 382.578611 213.998077 
L 382.746956 213.249158 
L 382.831129 220.722371 
L 382.915302 214.065686 
L 382.999475 214.087505 
L 383.083648 214.194757 
L 383.251993 214.092422 
L 383.420339 215.446746 
L 383.588685 214.411412 
L 383.672857 214.996534 
L 383.75703 214.668325 
L 383.841203 215.17416 
L 383.925376 216.379745 
L 384.093721 214.148353 
L 384.262067 217.522331 
L 384.34624 216.79308 
L 384.430413 217.162469 
L 384.598758 216.254362 
L 384.682931 216.570586 
L 384.767104 218.089015 
L 384.93545 214.129914 
L 385.019622 214.635443 
L 385.103795 214.255912 
L 385.187968 217.514649 
L 385.272141 212.680016 
L 385.356314 213.233178 
L 385.440486 213.699985 
L 385.524659 213.457823 
L 385.693005 217.11207 
L 385.861351 213.99316 
L 385.945523 217.778015 
L 386.029696 212.681553 
L 386.113869 213.080751 
L 386.198042 212.640373 
L 386.366387 212.929554 
L 386.534733 212.67049 
L 386.703079 214.879141 
L 386.787252 213.629303 
L 386.871424 214.311228 
L 387.123943 212.693538 
L 387.208116 212.799868 
L 387.292288 212.708596 
L 387.713152 214.884365 
L 387.881498 212.861945 
L 388.049844 214.097032 
L 388.134017 213.688 
L 388.218189 213.975951 
L 388.302362 212.47719 
L 388.386535 213.393287 
L 388.554881 212.757459 
L 388.639053 213.294333 
L 388.723226 212.843506 
L 388.807399 212.891447 
L 388.975745 213.533729 
L 389.228263 213.814305 
L 389.396609 212.751005 
L 389.564954 212.679709 
L 389.7333 213.090585 
L 389.817473 212.683704 
L 389.985818 213.365015 
L 390.069991 213.070917 
L 390.154164 213.115477 
L 390.238337 212.937851 
L 390.32251 213.099497 
L 390.406683 220.569637 
L 390.575028 212.837053 
L 390.743374 213.047869 
L 390.827547 212.971963 
L 390.911719 212.084446 
L 390.995892 212.824453 
L 391.164238 212.475346 
L 391.248411 212.631461 
L 391.332583 212.573379 
L 391.416756 213.65942 
L 391.500929 212.348427 
L 391.585102 214.67232 
L 391.669275 213.436311 
L 391.753448 216.804451 
L 391.921793 211.856113 
L 392.005966 212.110874 
L 392.090139 212.418494 
L 392.174312 212.24855 
L 392.258484 212.91511 
L 392.342657 212.306325 
L 392.42683 212.95967 
L 392.511003 212.085368 
L 392.595176 212.544492 
L 392.679349 212.50577 
L 392.847694 212.012535 
L 392.931867 212.242097 
L 393.01604 212.189854 
L 393.100213 212.20061 
L 393.436904 215.404337 
L 393.521077 214.853019 
L 393.689422 212.819536 
L 393.773595 213.130843 
L 393.857768 212.754693 
L 394.026114 213.638522 
L 394.110286 217.409241 
L 394.194459 134.027198 
L 394.278632 214.320755 
L 394.362805 213.83428 
L 394.446978 213.834895 
L 394.53115 213.723955 
L 394.783669 214.64374 
L 394.867842 214.507601 
L 395.036187 214.813991 
L 395.12036 214.370232 
L 395.288706 215.948279 
L 395.372879 219.951018 
L 395.541224 214.634213 
L 395.70957 214.294941 
L 395.793743 214.220879 
L 395.962088 215.034026 
L 396.046261 214.654496 
L 396.130434 215.040172 
L 396.214607 213.344425 
L 396.29878 213.682161 
L 396.382952 213.60103 
L 396.551298 213.773125 
L 396.635471 214.266668 
L 396.719644 214.014058 
L 396.887989 216.51189 
L 396.972162 231.735204 
L 397.140508 295.488 
L 398.487273 295.488 
L 398.487273 295.488 
" style="fill:none;stroke:#1f77b4;stroke-linecap:square;stroke-width:1.5;"/>
   </g>
   <g id="line2d_20">
    <path clip-path="url(#pf1da40c4a8)" d="M 73.832727 295.488 
L 81.99749 295.488 
L 82.165836 278.121492 
L 82.418354 278.002255 
L 82.502527 278.072014 
L 82.5867 277.991499 
L 82.670873 278.263163 
L 82.755046 278.068941 
L 82.839218 278.149457 
L 83.007564 278.062795 
L 83.17591 278.146384 
L 83.344255 278.126716 
L 83.512601 278.040976 
L 83.765119 278.32862 
L 83.849292 278.296352 
L 84.017638 278.123028 
L 84.101811 278.457998 
L 84.185983 278.096599 
L 84.270156 278.117189 
L 84.438502 278.014547 
L 84.522675 278.156833 
L 84.606848 278.085229 
L 85.785267 278.089531 
L 85.953613 278.141467 
L 87.805414 278.188486 
L 87.97376 278.013318 
L 88.142106 278.096292 
L 88.226279 277.977055 
L 88.310451 278.093834 
L 88.394624 279.628242 
L 88.56297 278.176808 
L 88.731315 278.045586 
L 88.983834 278.146384 
L 89.068007 278.247797 
L 89.236352 278.219524 
L 89.657216 278.086151 
L 89.741389 278.086765 
L 89.825562 278.457384 
L 89.993908 278.241036 
L 90.07808 278.294508 
L 90.330599 278.063102 
L 90.414772 278.146691 
L 90.583117 278.058493 
L 90.751463 278.084307 
L 90.835636 278.075088 
L 90.919809 278.192481 
L 91.003981 277.967221 
L 91.088154 278.075702 
L 91.172327 278.58123 
L 91.340673 278.028069 
L 91.509018 278.228129 
L 91.593191 278.018542 
L 91.761537 278.189715 
L 91.929882 278.094141 
L 92.098228 278.071707 
L 92.266574 278.092604 
L 92.350746 278.342449 
L 92.519092 278.220139 
L 92.687438 278.184798 
L 93.108302 277.96845 
L 93.192475 278.08277 
L 93.276647 278.013011 
L 95.212622 277.975826 
L 95.380968 278.094141 
L 95.717659 278.075088 
L 95.801832 278.313869 
L 95.886005 278.072629 
L 95.970177 278.24749 
L 96.222696 278.001025 
L 96.391042 277.952163 
L 96.811906 278.327083 
L 96.980251 278.269616 
L 97.064424 278.280679 
L 97.23277 278.355971 
L 97.906152 278.069863 
L 97.990325 279.250863 
L 98.074498 277.988426 
L 98.158671 278.045278 
L 98.411189 277.938026 
L 98.495362 278.039439 
L 98.663708 277.961997 
L 98.74788 277.897461 
L 98.832053 278.277299 
L 98.916226 278.154374 
L 99.084572 277.914056 
L 99.252917 278.018849 
L 99.757954 277.986274 
L 99.842127 278.237041 
L 99.9263 278.066176 
L 100.010473 278.129482 
L 100.094645 278.134091 
L 100.178818 277.973675 
L 100.347164 278.197398 
L 100.431337 277.97306 
L 100.599682 278.087687 
L 100.768028 278.080926 
L 101.020546 278.234582 
L 101.188892 277.991499 
L 101.44141 278.328313 
L 101.609756 278.122721 
L 101.778102 278.054498 
L 101.862274 278.375331 
L 101.946447 278.109199 
L 102.03062 278.32524 
L 102.114793 278.028683 
L 102.283139 278.16851 
L 102.451484 278.081234 
L 102.535657 278.204466 
L 102.704003 278.028069 
L 102.872348 278.088917 
L 103.040694 278.073858 
L 103.124867 278.208461 
L 103.20904 277.983509 
L 103.293212 278.057878 
L 103.629904 278.139008 
L 103.798249 278.026532 
L 103.882422 278.06218 
L 104.050768 277.898076 
L 104.471632 278.068634 
L 104.555805 277.948782 
L 104.72415 278.066176 
L 104.976669 277.923275 
L 105.145014 277.91928 
L 105.229187 278.509319 
L 105.481706 278.045893 
L 105.734224 278.100902 
L 105.818397 278.10797 
L 105.90257 278.253329 
L 105.986742 278.08738 
L 106.070915 278.25548 
L 106.239261 278.031142 
L 106.323434 278.013011 
L 106.407606 278.285289 
L 106.575952 278.192173 
L 106.660125 278.178959 
L 106.744298 278.278528 
L 106.912643 278.111658 
L 106.996816 278.447857 
L 107.080989 277.993957 
L 107.249335 278.183569 
L 107.41768 278.134091 
L 107.501853 278.775759 
L 107.670199 278.064639 
L 107.754372 278.055112 
L 107.922717 278.196783 
L 108.00689 278.16513 
L 108.091063 279.611648 
L 108.175236 277.845833 
L 108.259408 279.313248 
L 108.343581 277.834462 
L 108.427754 277.896539 
L 108.5961 277.839687 
L 108.680272 280.847042 
L 108.764445 277.899305 
L 108.848618 277.914978 
L 109.437828 277.95708 
L 109.606173 278.052961 
L 109.690346 277.824936 
L 109.774519 277.927578 
L 109.942865 277.735508 
L 110.11121 277.843374 
L 110.195383 277.725674 
L 110.363729 277.790517 
L 110.447902 277.784678 
L 110.532074 277.651919 
L 110.616247 278.604893 
L 110.784593 277.908832 
L 110.952938 277.861506 
L 111.205457 277.748415 
L 111.28963 277.790209 
L 111.373803 277.616578 
L 111.542148 278.368878 
L 111.626321 277.879637 
L 111.710494 277.902378 
L 111.878839 277.67804 
L 112.047185 277.809263 
L 112.131358 277.647924 
L 112.215531 277.696172 
L 112.383876 277.700474 
L 112.636395 277.701089 
L 112.80474 277.658987 
L 112.973086 277.712152 
L 113.057259 277.702318 
L 113.225604 277.751795 
L 113.478123 277.778839 
L 113.730641 277.658372 
L 113.898987 277.659909 
L 114.067333 277.674045 
L 114.488197 277.628256 
L 114.572369 277.72844 
L 114.740715 277.615349 
L 114.909061 277.66667 
L 115.077406 277.636861 
L 115.245752 277.636246 
L 115.49827 277.7352 
L 115.582443 277.669743 
L 115.666616 278.438023 
L 115.834962 277.781605 
L 116.171653 277.695865 
L 116.339999 277.836613 
L 116.508344 277.814794 
L 116.67669 277.754254 
L 116.760863 277.805882 
L 116.929208 277.758249 
L 117.2659 277.745956 
L 117.434245 295.488 
L 398.487273 295.488 
L 398.487273 295.488 
" style="fill:none;stroke:#ff7f0e;stroke-linecap:square;stroke-width:1.5;"/>
   </g>
   <g id="line2d_21">
    <path clip-path="url(#pf1da40c4a8)" d="M 73.832727 295.488 
L 398.487273 295.488 
L 398.487273 295.488 
" style="fill:none;stroke:#2ca02c;stroke-linecap:square;stroke-width:1.5;"/>
   </g>
   <g id="line2d_22">
    <path clip-path="url(#pf1da40c4a8)" d="M 73.832727 295.488 
L 398.487273 295.488 
L 398.487273 295.488 
" style="fill:none;stroke:#d62728;stroke-linecap:square;stroke-width:1.5;"/>
   </g>
   <g id="patch_3">
    <path d="M 57.6 307.584 
L 57.6 41.472 
" style="fill:none;stroke:#000000;stroke-linecap:square;stroke-linejoin:miter;stroke-width:0.8;"/>
   </g>
   <g id="patch_4">
    <path d="M 414.72 307.584 
L 414.72 41.472 
" style="fill:none;stroke:#000000;stroke-linecap:square;stroke-linejoin:miter;stroke-width:0.8;"/>
   </g>
   <g id="patch_5">
    <path d="M 57.6 307.584 
L 414.72 307.584 
" style="fill:none;stroke:#000000;stroke-linecap:square;stroke-linejoin:miter;stroke-width:0.8;"/>
   </g>
   <g id="patch_6">
    <path d="M 57.6 41.472 
L 414.72 41.472 
" style="fill:none;stroke:#000000;stroke-linecap:square;stroke-linejoin:miter;stroke-width:0.8;"/>
   </g>
   <g id="text_21">
    <!-- System calls through time -->
    <defs>
     <path d="M 18.3125 70.21875 
L 18.3125 54.6875 
L 36.8125 54.6875 
L 36.8125 47.703125 
L 18.3125 47.703125 
L 18.3125 18.015625 
Q 18.3125 11.328125 20.140625 9.421875 
Q 21.96875 7.515625 27.59375 7.515625 
L 36.8125 7.515625 
L 36.8125 0 
L 27.59375 0 
Q 17.1875 0 13.234375 3.875 
Q 9.28125 7.765625 9.28125 18.015625 
L 9.28125 47.703125 
L 2.6875 47.703125 
L 2.6875 54.6875 
L 9.28125 54.6875 
L 9.28125 70.21875 
z
" id="DejaVuSans-116"/>
     <path d="M 54.890625 33.015625 
L 54.890625 0 
L 45.90625 0 
L 45.90625 32.71875 
Q 45.90625 40.484375 42.875 44.328125 
Q 39.84375 48.1875 33.796875 48.1875 
Q 26.515625 48.1875 22.3125 43.546875 
Q 18.109375 38.921875 18.109375 30.90625 
L 18.109375 0 
L 9.078125 0 
L 9.078125 75.984375 
L 18.109375 75.984375 
L 18.109375 46.1875 
Q 21.34375 51.125 25.703125 53.5625 
Q 30.078125 56 35.796875 56 
Q 45.21875 56 50.046875 50.171875 
Q 54.890625 44.34375 54.890625 33.015625 
z
" id="DejaVuSans-104"/>
     <path d="M 41.109375 46.296875 
Q 39.59375 47.171875 37.8125 47.578125 
Q 36.03125 48 33.890625 48 
Q 26.265625 48 22.1875 43.046875 
Q 18.109375 38.09375 18.109375 28.8125 
L 18.109375 0 
L 9.078125 0 
L 9.078125 54.6875 
L 18.109375 54.6875 
L 18.109375 46.1875 
Q 20.953125 51.171875 25.484375 53.578125 
Q 30.03125 56 36.53125 56 
Q 37.453125 56 38.578125 55.875 
Q 39.703125 55.765625 41.0625 55.515625 
z
" id="DejaVuSans-114"/>
     <path d="M 30.609375 48.390625 
Q 23.390625 48.390625 19.1875 42.75 
Q 14.984375 37.109375 14.984375 27.296875 
Q 14.984375 17.484375 19.15625 11.84375 
Q 23.34375 6.203125 30.609375 6.203125 
Q 37.796875 6.203125 41.984375 11.859375 
Q 46.1875 17.53125 46.1875 27.296875 
Q 46.1875 37.015625 41.984375 42.703125 
Q 37.796875 48.390625 30.609375 48.390625 
z
M 30.609375 56 
Q 42.328125 56 49.015625 48.375 
Q 55.71875 40.765625 55.71875 27.296875 
Q 55.71875 13.875 49.015625 6.21875 
Q 42.328125 -1.421875 30.609375 -1.421875 
Q 18.84375 -1.421875 12.171875 6.21875 
Q 5.515625 13.875 5.515625 27.296875 
Q 5.515625 40.765625 12.171875 48.375 
Q 18.84375 56 30.609375 56 
z
" id="DejaVuSans-111"/>
     <path d="M 8.5 21.578125 
L 8.5 54.6875 
L 17.484375 54.6875 
L 17.484375 21.921875 
Q 17.484375 14.15625 20.5 10.265625 
Q 23.53125 6.390625 29.59375 6.390625 
Q 36.859375 6.390625 41.078125 11.03125 
Q 45.3125 15.671875 45.3125 23.6875 
L 45.3125 54.6875 
L 54.296875 54.6875 
L 54.296875 0 
L 45.3125 0 
L 45.3125 8.40625 
Q 42.046875 3.421875 37.71875 1 
Q 33.40625 -1.421875 27.6875 -1.421875 
Q 18.265625 -1.421875 13.375 4.4375 
Q 8.5 10.296875 8.5 21.578125 
z
M 31.109375 56 
z
" id="DejaVuSans-117"/>
     <path d="M 45.40625 27.984375 
Q 45.40625 37.75 41.375 43.109375 
Q 37.359375 48.484375 30.078125 48.484375 
Q 22.859375 48.484375 18.828125 43.109375 
Q 14.796875 37.75 14.796875 27.984375 
Q 14.796875 18.265625 18.828125 12.890625 
Q 22.859375 7.515625 30.078125 7.515625 
Q 37.359375 7.515625 41.375 12.890625 
Q 45.40625 18.265625 45.40625 27.984375 
z
M 54.390625 6.78125 
Q 54.390625 -7.171875 48.1875 -13.984375 
Q 42 -20.796875 29.203125 -20.796875 
Q 24.46875 -20.796875 20.265625 -20.09375 
Q 16.0625 -19.390625 12.109375 -17.921875 
L 12.109375 -9.1875 
Q 16.0625 -11.328125 19.921875 -12.34375 
Q 23.78125 -13.375 27.78125 -13.375 
Q 36.625 -13.375 41.015625 -8.765625 
Q 45.40625 -4.15625 45.40625 5.171875 
L 45.40625 9.625 
Q 42.625 4.78125 38.28125 2.390625 
Q 33.9375 0 27.875 0 
Q 17.828125 0 11.671875 7.65625 
Q 5.515625 15.328125 5.515625 27.984375 
Q 5.515625 40.671875 11.671875 48.328125 
Q 17.828125 56 27.875 56 
Q 33.9375 56 38.28125 53.609375 
Q 42.625 51.21875 45.40625 46.390625 
L 45.40625 54.6875 
L 54.390625 54.6875 
z
" id="DejaVuSans-103"/>
    </defs>
    <g transform="translate(157.502813 35.472)scale(0.12 -0.12)">
     <use xlink:href="#DejaVuSans-83"/>
     <use x="63.476562" xlink:href="#DejaVuSans-121"/>
     <use x="122.65625" xlink:href="#DejaVuSans-115"/>
     <use x="174.755859" xlink:href="#DejaVuSans-116"/>
     <use x="213.964844" xlink:href="#DejaVuSans-101"/>
     <use x="275.488281" xlink:href="#DejaVuSans-109"/>
     <use x="372.900391" xlink:href="#DejaVuSans-32"/>
     <use x="404.6875" xlink:href="#DejaVuSans-99"/>
     <use x="459.667969" xlink:href="#DejaVuSans-97"/>
     <use x="520.947266" xlink:href="#DejaVuSans-108"/>
     <use x="548.730469" xlink:href="#DejaVuSans-108"/>
     <use x="576.513672" xlink:href="#DejaVuSans-115"/>
     <use x="628.613281" xlink:href="#DejaVuSans-32"/>
     <use x="660.400391" xlink:href="#DejaVuSans-116"/>
     <use x="699.609375" xlink:href="#DejaVuSans-104"/>
     <use x="762.988281" xlink:href="#DejaVuSans-114"/>
     <use x="801.851562" xlink:href="#DejaVuSans-111"/>
     <use x="863.033203" xlink:href="#DejaVuSans-117"/>
     <use x="926.412109" xlink:href="#DejaVuSans-103"/>
     <use x="989.888672" xlink:href="#DejaVuSans-104"/>
     <use x="1053.267578" xlink:href="#DejaVuSans-32"/>
     <use x="1085.054688" xlink:href="#DejaVuSans-116"/>
     <use x="1124.263672" xlink:href="#DejaVuSans-105"/>
     <use x="1152.046875" xlink:href="#DejaVuSans-109"/>
     <use x="1249.458984" xlink:href="#DejaVuSans-101"/>
    </g>
   </g>
   <g id="legend_1">
    <g id="patch_7">
     <path d="M 64.6 64.150125 
L 160.467187 64.150125 
Q 162.467187 64.150125 162.467187 62.150125 
L 162.467187 48.472 
Q 162.467187 46.472 160.467187 46.472 
L 64.6 46.472 
Q 62.6 46.472 62.6 48.472 
L 62.6 62.150125 
Q 62.6 64.150125 64.6 64.150125 
z
" style="fill:#ffffff;opacity:0.8;stroke:#cccccc;stroke-linejoin:miter;"/>
    </g>
    <g id="patch_8">
     <path d="M 66.6 58.070438 
L 86.6 58.070438 
L 86.6 51.070438 
L 66.6 51.070438 
z
" style="fill:#ff0000;stroke:#ff0000;stroke-linejoin:miter;"/>
    </g>
    <g id="text_22">
     <!-- The red data -->
     <defs>
      <path d="M 45.40625 46.390625 
L 45.40625 75.984375 
L 54.390625 75.984375 
L 54.390625 0 
L 45.40625 0 
L 45.40625 8.203125 
Q 42.578125 3.328125 38.25 0.953125 
Q 33.9375 -1.421875 27.875 -1.421875 
Q 17.96875 -1.421875 11.734375 6.484375 
Q 5.515625 14.40625 5.515625 27.296875 
Q 5.515625 40.1875 11.734375 48.09375 
Q 17.96875 56 27.875 56 
Q 33.9375 56 38.25 53.625 
Q 42.578125 51.265625 45.40625 46.390625 
z
M 14.796875 27.296875 
Q 14.796875 17.390625 18.875 11.75 
Q 22.953125 6.109375 30.078125 6.109375 
Q 37.203125 6.109375 41.296875 11.75 
Q 45.40625 17.390625 45.40625 27.296875 
Q 45.40625 37.203125 41.296875 42.84375 
Q 37.203125 48.484375 30.078125 48.484375 
Q 22.953125 48.484375 18.875 42.84375 
Q 14.796875 37.203125 14.796875 27.296875 
z
" id="DejaVuSans-100"/>
     </defs>
     <g transform="translate(94.6 58.070438)scale(0.1 -0.1)">
      <use xlink:href="#DejaVuSans-84"/>
      <use x="61.083984" xlink:href="#DejaVuSans-104"/>
      <use x="124.462891" xlink:href="#DejaVuSans-101"/>
      <use x="185.986328" xlink:href="#DejaVuSans-32"/>
      <use x="217.773438" xlink:href="#DejaVuSans-114"/>
      <use x="256.636719" xlink:href="#DejaVuSans-101"/>
      <use x="318.160156" xlink:href="#DejaVuSans-100"/>
      <use x="381.636719" xlink:href="#DejaVuSans-32"/>
      <use x="413.423828" xlink:href="#DejaVuSans-100"/>
      <use x="476.900391" xlink:href="#DejaVuSans-97"/>
      <use x="538.179688" xlink:href="#DejaVuSans-116"/>
      <use x="577.388672" xlink:href="#DejaVuSans-97"/>
     </g>
    </g>
   </g>
  </g>
 </g>
 <defs>
  <clipPath id="pf1da40c4a8">
   <rect height="266.112" width="357.12" x="57.6" y="41.472"/>
  </clipPath>
 </defs>
</svg>
